<svg width="196" height="196" viewBox="0 0 196 196" fill="none" xmlns="http://www.w3.org/2000/svg">
<circle cx="98" cy="98" r="98" fill="#E3867D"/>
<path d="M42.5769 108.575C39.4997 105.672 38 102.146 38 98.0003C38 93.855 39.4997 90.3268 42.5769 87.3549C45.5791 84.4519 49.2261 83.0005 53.518 83.0005C57.8071 83.0005 61.4556 84.4519 64.5306 87.3549C67.5342 90.3268 69.036 93.8509 69.036 98.0003C69.0233 99.0243 68.9036 100.045 68.679 101.045H44.5072C44.9198 102.236 45.6039 103.323 46.5089 104.224C47.3636 105.192 48.4433 105.949 49.6595 106.435C50.8639 106.984 52.18 107.266 53.5117 107.261C55.2811 107.262 57.0151 106.783 58.5171 105.879L62.7536 110.026C60.1087 111.997 56.8512 113.045 53.5117 112.998C49.2268 112.998 45.5784 111.547 42.5769 108.575ZM62.6717 95.3796C62.3891 94.4221 61.9548 93.5126 61.3842 92.6837C60.767 91.9266 60.0724 91.2315 59.311 90.609C57.653 89.3983 55.6317 88.7433 53.5537 88.7433C51.4757 88.7433 49.4544 89.3983 47.7964 90.609C46.1311 91.7821 44.9223 93.4623 44.3643 95.3796H62.6717Z" fill="white"/>
<path d="M76.0452 110.371C75.1752 109.555 74.4857 108.576 74.0185 107.494C73.5513 106.412 73.3162 105.25 73.3273 104.078H79.2631C79.2968 104.911 79.6542 105.701 80.2639 106.29C80.8736 106.879 81.6908 107.225 82.5524 107.257C83.1514 107.27 83.7434 107.13 84.2684 106.851C84.7577 106.55 85.1728 106.149 85.4846 105.676C85.799 105.185 85.9689 104.62 85.9758 104.043C85.9828 103.465 85.8266 102.897 85.524 102.399C85.2215 101.901 84.784 101.493 84.2589 101.217C83.7338 100.942 83.1408 100.81 82.544 100.836V100.907C80.0993 100.863 77.7686 99.9001 76.0464 98.2227C74.3241 96.5453 73.3457 94.2854 73.3188 91.9224C73.3299 90.4489 73.7159 89.0007 74.4427 87.7054C75.1695 86.41 76.2149 85.3074 77.4866 84.4947C78.7584 83.6819 80.2175 83.1841 81.7354 83.0449C83.2532 82.9058 84.7831 83.1296 86.1903 83.6968C88.3968 84.6301 90.1585 86.3327 91.1242 88.4653C91.6078 89.5553 91.8517 90.7305 91.8405 91.9163H85.9131C85.9042 91.2876 85.7054 90.675 85.3411 90.154C84.9768 89.633 84.4629 89.2263 83.8626 88.9838C83.2622 88.7414 82.6017 88.6738 81.9621 88.7895C81.3226 88.9051 80.732 89.1988 80.2629 89.6346C79.9466 89.9306 79.6952 90.285 79.5234 90.6768C79.3517 91.0686 79.2632 91.4898 79.2632 91.9153C79.2632 92.3408 79.3517 92.762 79.5234 93.1538C79.6952 93.5456 79.9466 93.9 80.2629 94.196C80.5534 94.5029 80.9073 94.7477 81.3016 94.9144C81.6959 95.0812 82.122 95.1663 82.5524 95.1644V95.0933C84.078 95.0861 85.5818 95.4432 86.9303 96.1328C88.2788 96.8225 89.4301 97.8233 90.282 99.0465C91.1339 100.27 91.6601 101.677 91.8137 103.144C91.9672 104.611 91.7435 106.092 91.1624 107.456C90.5813 108.819 89.6608 110.022 88.4826 110.959C87.3044 111.896 85.905 112.537 84.4089 112.825C82.9127 113.114 81.366 113.04 79.9062 112.612C78.4464 112.183 77.1187 111.413 76.041 110.369L76.0452 110.371Z" fill="white"/>
<path d="M100.717 108.575C97.6419 105.672 96.1506 102.137 96.1506 98.0002C96.1506 93.863 97.6524 90.3267 100.727 87.3547C103.731 84.4518 107.378 83.0003 111.669 83.0003C115.96 83.0003 119.606 84.4518 122.61 87.4258L118.464 91.433C116.525 89.6365 114.305 88.7392 111.658 88.7392C110.406 88.7187 109.164 88.9475 108.007 89.4113C106.851 89.8751 105.806 90.564 104.937 91.4351C103.004 93.3007 102.076 95.4444 102.076 98.0022C102.125 100.444 103.15 102.772 104.937 104.498C106.723 106.225 109.132 107.216 111.658 107.263C114.305 107.263 116.521 106.364 118.453 104.567L122.599 108.577C119.596 111.549 115.949 113 111.658 113C107.367 113 103.712 111.547 100.717 108.575Z" fill="white"/>
<path d="M131.541 108.575C128.464 105.672 126.964 102.145 126.964 98.0002C126.964 93.8549 128.464 90.3267 131.541 87.3547C134.544 84.4518 138.192 83.0003 142.482 83.0003C145.969 82.9779 149.356 84.1259 152.064 86.2484V83.0003H158V112.998H152.064V109.75C149.356 111.872 145.969 113.02 142.482 112.998C138.191 112.998 134.544 111.547 131.541 108.575ZM147.273 106.017C148.741 105.221 149.953 104.049 150.777 102.631C151.626 101.226 152.07 99.6271 152.064 98.0002C152.064 95.4423 151.136 93.2986 149.277 91.4331C147.345 89.6365 145.129 88.7372 142.482 88.7372C141.23 88.7172 139.988 88.9462 138.831 89.41C137.675 89.8737 136.63 90.5624 135.761 91.4331C133.828 93.2986 132.908 95.4383 132.908 98.0002C132.956 100.442 133.981 102.771 135.768 104.497C137.555 106.224 139.964 107.215 142.49 107.261C144.171 107.265 145.822 106.836 147.273 106.017Z" fill="white"/>
</svg>
