<svg width="236" height="74" viewBox="0 0 236 74" fill="none" xmlns="http://www.w3.org/2000/svg">
<path d="M19.5526 46.286C13.7822 41.0322 10.9698 34.6505 10.9698 27.1482C10.9698 19.6459 13.7822 13.2604 19.5526 7.88171C25.1825 2.62789 32.0217 0.000976562 40.07 0.000976562C48.1132 0.000976562 54.9549 2.62789 60.7214 7.88171C66.3539 13.2604 69.1702 19.6385 69.1702 27.1482C69.1463 29.0015 68.922 30.8478 68.5006 32.6592H23.1724C23.9462 34.8148 25.229 36.781 26.9261 38.4126C28.5289 40.1631 30.5536 41.5342 32.8344 42.4136C35.093 43.4074 37.561 43.9182 40.0582 43.9089C43.3762 43.9097 46.628 43.0429 49.4445 41.4069L57.3891 48.9129C52.4291 52.48 46.3206 54.3758 40.0582 54.2917C32.023 54.2917 25.1812 51.6648 19.5526 46.286ZM57.2355 22.405C56.7056 20.6721 55.8911 19.0263 54.821 17.526C53.6637 16.1557 52.3612 14.8978 50.9334 13.7711C47.8242 11.5801 44.0338 10.3946 40.137 10.3946C36.2402 10.3946 32.4498 11.5801 29.3406 13.7711C26.2177 15.8942 23.9508 18.9351 22.9046 22.405H57.2355Z" fill="#282828"/>
<path d="M82.3142 49.5375C80.6826 48.0595 79.3897 46.2881 78.5136 44.3304C77.6375 42.3727 77.1965 40.2695 77.2173 38.1481H88.3485C88.4117 39.6552 89.0818 41.0846 90.2252 42.1511C91.3685 43.2176 92.901 43.8427 94.5167 43.9016C95.6401 43.9254 96.7502 43.6719 97.7347 43.1668C98.6523 42.6215 99.4307 41.8954 100.015 41.0396C100.605 40.1509 100.924 39.1291 100.937 38.0841C100.95 37.0391 100.657 36.0106 100.089 35.1094C99.5219 34.2082 98.7017 33.4685 97.7169 32.9701C96.7321 32.4716 95.6202 32.2333 94.501 32.2808V32.4094C89.9166 32.3293 85.546 30.5866 82.3163 27.5507C79.0866 24.5149 77.252 20.4248 77.2015 16.1482C77.2223 13.4815 77.9461 10.8604 79.309 8.51608C80.672 6.17176 82.6323 4.1762 85.0172 2.70529C87.4021 1.23437 90.1383 0.333275 92.9846 0.081442C95.8309 -0.170391 98.6999 0.234754 101.339 1.26118C105.477 2.95046 108.78 6.03188 110.591 9.89143C111.498 11.8641 111.955 13.991 111.934 16.1372H100.819C100.802 14.9993 100.429 13.8907 99.7463 12.9477C99.0631 12.0048 98.0994 11.2687 96.9736 10.8299C95.8479 10.3911 94.6092 10.2689 93.4099 10.4781C92.2106 10.6874 91.103 11.219 90.2234 12.0076C89.6303 12.5434 89.1587 13.1848 88.8367 13.8939C88.5146 14.603 88.3487 15.3653 88.3487 16.1354C88.3487 16.9055 88.5146 17.6677 88.8367 18.3768C89.1587 19.0859 89.6303 19.7274 90.2234 20.2631C90.7682 20.8186 91.4317 21.2614 92.1712 21.5633C92.9106 21.8651 93.7096 22.0192 94.5167 22.0156V21.887C97.3776 21.8739 100.198 22.5202 102.726 23.7683C105.255 25.0165 107.414 26.8279 109.012 29.0417C110.609 31.2554 111.596 33.803 111.884 36.458C112.172 39.113 111.752 41.7933 110.663 44.2607C109.573 46.7281 107.847 48.9062 105.637 50.6016C103.428 52.2969 100.804 53.4571 97.9981 53.9788C95.1924 54.5006 92.2919 54.3678 89.5544 53.5924C86.8169 52.8169 84.3271 51.4228 82.3063 49.5339L82.3142 49.5375Z" fill="#282828"/>
<path d="M128.58 46.286C122.813 41.0322 120.017 34.6358 120.017 27.1482C120.017 19.6605 122.833 13.2604 128.6 7.88171C134.232 2.62789 141.071 0.000976562 149.117 0.000976562C157.164 0.000976562 164.002 2.6279 169.634 8.01031L161.859 15.2628C158.224 12.0113 154.06 10.3874 149.097 10.3874C146.75 10.3503 144.419 10.7644 142.251 11.6038C140.083 12.4432 138.123 13.6899 136.493 15.2665C132.869 18.6429 131.128 22.5226 131.128 27.1518C131.22 31.5703 133.143 35.7839 136.493 38.9088C139.843 42.0337 144.36 43.827 149.097 43.9126C154.06 43.9126 158.216 42.285 161.839 39.0335L169.615 46.2897C163.982 51.6684 157.144 54.2953 149.097 54.2953C141.05 54.2953 134.197 51.6648 128.58 46.286Z" fill="#282828"/>
<path d="M186.382 46.2856C180.612 41.0318 177.8 34.6501 177.8 27.1478C177.8 19.6455 180.612 13.26 186.382 7.88131C192.015 2.6275 198.854 0.000582342 206.9 0.000582342C213.439 -0.0399621 219.79 2.03774 224.869 5.87898V0.000582342H236V54.2913H224.869V48.4129C219.79 52.2541 213.439 54.3318 206.9 54.2913C198.853 54.2913 192.015 51.6644 186.382 46.2856ZM215.884 41.6564C218.636 40.2155 220.91 38.0952 222.454 35.5282C224.046 32.9857 224.88 30.0921 224.869 27.1478C224.869 22.5185 223.128 18.6388 219.642 15.2624C216.018 12.0109 211.863 10.3833 206.9 10.3833C204.553 10.3471 202.222 10.7616 200.054 11.6009C197.886 12.4403 195.926 13.6866 194.296 15.2624C190.672 18.6388 188.947 22.5112 188.947 27.1478C189.036 31.5668 190.958 35.7815 194.309 38.9067C197.66 42.032 202.178 43.8248 206.916 43.9085C210.067 43.9164 213.163 43.1389 215.884 41.6564Z" fill="#282828"/>
<path d="M10.7844 49.0822C10.9502 49.6224 11.2169 50.1311 11.5722 50.5848C11.728 50.7925 11.9019 50.9879 12.0921 51.169C12.1859 51.2523 12.2846 51.3308 12.3875 51.4041C12.4939 51.4739 12.6002 51.5364 12.7105 51.5988C13.1422 51.8327 13.6079 52.0072 14.0931 52.1169C14.5575 52.2265 15.0362 52.2747 15.515 52.2602C16.3393 52.2286 17.1548 52.0888 17.9374 51.845C18.2485 51.7495 18.4967 51.654 18.67 51.5878C18.8433 51.5217 18.9418 51.4666 18.9418 51.4666L18.8788 51.4188L18.7015 51.2829C18.5439 51.169 18.3076 51 18.0398 50.8126C17.7719 50.6253 17.4293 50.4085 17.0511 50.1917C16.673 49.975 16.2988 49.6994 15.8695 49.4569C15.6607 49.3394 15.4401 49.2291 15.2196 49.1263L14.8848 48.9756L14.5578 48.8213C14.1349 48.6289 13.6876 48.4869 13.2265 48.3988C12.7911 48.3003 12.3354 48.3117 11.9062 48.4318C11.477 48.5519 11.0899 48.7764 10.7844 49.0822Z" fill="#206301"/>
<path d="M22.4004 55.9462C22.7126 55.7662 23.0137 55.57 23.3023 55.3584C23.3023 55.3584 22.936 55.1784 22.3452 54.9579L21.8568 54.7889C21.6874 54.7265 21.5141 54.6457 21.325 54.5759C20.922 54.4231 20.5105 54.2906 20.0922 54.1791L19.7613 54.0946L19.4383 53.999C19.2178 53.9402 18.9972 53.8888 18.7687 53.8484C18.3285 53.7638 17.8785 53.7318 17.4295 53.7529C16.9844 53.7471 16.5451 53.8477 16.1535 54.0452C15.7619 54.2426 15.4309 54.5303 15.1923 54.8808C15.3013 55.1356 15.433 55.3814 15.5861 55.6156C15.737 55.8189 15.9143 56.004 16.114 56.1667C16.4793 56.4744 16.9045 56.7138 17.3665 56.8721C17.4768 56.9088 17.591 56.9456 17.7013 56.975C17.8184 56.999 17.9367 57.0174 18.0558 57.0301C18.299 57.0559 18.5441 57.062 18.7884 57.0484C19.2522 57.0402 19.7135 56.9822 20.1631 56.8758C20.593 56.7736 21.0102 56.6295 21.4078 56.4459C21.7482 56.2965 22.0796 56.1297 22.4004 55.9462Z" fill="#206301"/>
<path d="M25.1496 60.3724C25.3544 60.2695 25.5435 60.163 25.7326 60.0528C25.9216 59.9425 26.1028 59.814 26.2722 59.6854C26.6109 59.4392 26.9063 59.1931 27.1505 58.9763C27.427 58.7356 27.6899 58.4818 27.9383 58.2158C27.6106 58.1464 27.2793 58.0925 26.9457 58.0541C26.6345 58.0284 26.2919 57.9586 25.9059 57.9145C25.4944 57.8631 25.0802 57.8336 24.6651 57.8263C24.2285 57.7968 23.7901 57.7968 23.3535 57.8263C23.1329 57.8263 22.9123 57.8704 22.6957 57.9072C22.4791 57.9439 22.2664 57.9953 22.0655 58.0468C21.6275 58.1465 21.2209 58.3413 20.8787 58.6151C20.5365 58.889 20.2684 59.2343 20.0961 59.6229C20.2444 59.8351 20.4145 60.0332 20.6042 60.2144C20.7744 60.3825 20.9726 60.524 21.1911 60.6333C21.5961 60.8395 22.0428 60.9646 22.5027 61.0007C22.7254 61.0208 22.9496 61.0208 23.1723 61.0007C23.4039 60.9702 23.6329 60.9248 23.8577 60.8647C24.3059 60.7441 24.739 60.579 25.1496 60.3724Z" fill="#206301"/>
<path d="M27.1426 61.4004C26.7415 61.5991 26.3904 61.8752 26.1127 62.2103C25.8349 62.5454 25.6368 62.9319 25.5316 63.344C25.7088 63.5096 25.9042 63.6574 26.1146 63.7848C26.3074 63.9027 26.5187 63.9919 26.7408 64.0494C27.1685 64.149 27.6134 64.1665 28.0485 64.1008C28.2664 64.0696 28.4812 64.0217 28.6906 63.9575C28.9094 63.8828 29.1214 63.7919 29.3247 63.6856C29.7439 63.478 30.1397 63.2319 30.5064 62.9508C30.8582 62.6887 31.1863 62.3999 31.4871 62.0874C31.7826 61.7862 32.0347 61.4886 32.2434 61.2351C32.6609 60.7207 32.8973 60.357 32.8973 60.357C32.5619 60.3535 32.2266 60.367 31.8928 60.3974C31.7353 60.3974 31.5738 60.4195 31.4044 60.4268C31.2351 60.4341 31.046 60.4488 30.853 60.4672C30.4416 60.5056 30.0327 60.5645 29.628 60.6436C29.198 60.7 28.7738 60.7897 28.3597 60.9118C28.148 60.9743 27.9402 61.0479 27.7374 61.1322C27.6389 61.1726 27.5365 61.2167 27.438 61.2645C27.3395 61.3122 27.2332 61.3526 27.1426 61.4004Z" fill="#206301"/>
<path d="M33.0392 65.8443C33.4711 65.8585 33.9015 65.7897 34.3036 65.6422C35.1628 65.3032 35.923 64.7779 36.5212 64.1101C36.8261 63.7959 37.1103 63.4646 37.372 63.1182C37.624 62.7948 37.8407 62.4642 38.0179 62.1886C38.3646 61.6265 38.5576 61.2407 38.5576 61.2407C38.5576 61.2407 38.1637 61.3032 37.565 61.4428C36.813 61.5909 36.0753 61.7961 35.3592 62.0564C34.9427 62.1946 34.5384 62.3629 34.15 62.5597C33.7596 62.7581 33.3904 62.9906 33.0471 63.2541C32.6907 63.5185 32.3948 63.8468 32.177 64.2198C31.9591 64.5928 31.8237 65.0027 31.7788 65.4254C32.1529 65.6646 32.5873 65.8089 33.0392 65.8443Z" fill="#206301"/>
<path d="M38.7423 67.1812C39.1596 67.1266 39.5612 66.9955 39.9239 66.7954C40.3145 66.5841 40.6757 66.3287 40.9992 66.0349C41.3408 65.7215 41.6555 65.3837 41.9406 65.0246C42.4449 64.3874 42.8903 63.7114 43.272 63.0039C43.5792 62.4344 43.7407 62.0376 43.7407 62.0376C43.7407 62.0376 43.3468 62.1441 42.752 62.3278C42.4566 62.4234 42.1061 62.5446 41.7358 62.6952C41.5467 62.7687 41.3419 62.8496 41.1607 62.9341L40.5857 63.1986C40.1889 63.3934 39.8084 63.6156 39.4473 63.8636C39.2643 63.9887 39.0882 64.1224 38.9195 64.264C38.7515 64.3956 38.5936 64.538 38.4469 64.6902C37.8139 65.3026 37.462 66.1211 37.4661 66.9718C37.8654 67.142 38.3047 67.2141 38.7423 67.1812Z" fill="#206301"/>
<path d="M45.9661 67.1776C46.3287 66.933 46.6604 66.6508 46.9548 66.3363C47.1071 66.1746 47.2528 66.0056 47.392 65.8293C47.5259 65.6493 47.6559 65.4619 47.7858 65.2818C48.2107 64.6179 48.5731 63.9209 48.869 63.1987C48.9833 62.9121 49.0738 62.6733 49.129 62.497L49.2156 62.2251L48.9793 62.328C48.8218 62.3904 48.5854 62.4823 48.3373 62.6035C48.0891 62.7247 47.7662 62.8791 47.4353 63.0591C47.1044 63.2391 46.7381 63.4265 46.3797 63.6543C46.0093 63.8751 45.6565 64.1207 45.3241 64.3891C44.9815 64.6515 44.6711 64.9485 44.3984 65.2745C43.8273 65.9175 43.545 66.7417 43.6107 67.5744C44.009 67.6864 44.4301 67.7088 44.8395 67.6399C45.2489 67.5709 45.6349 67.4125 45.9661 67.1776Z" fill="#206301"/>
<path d="M52.0241 66.8429C52.2002 66.7336 52.3663 66.6107 52.5204 66.4755C52.8406 66.1979 53.126 65.8873 53.3712 65.5497C53.6181 65.1877 53.8341 64.8081 54.0172 64.4144C54.34 63.7255 54.5919 63.0095 54.7695 62.2761C54.9073 61.681 54.9585 61.2842 54.9585 61.2842L54.7577 61.4238C54.6277 61.5119 54.4426 61.6479 54.2141 61.7912C53.9857 61.9345 53.7257 62.1329 53.4263 62.3496C53.2885 62.4562 53.1388 62.5774 52.997 62.6987C52.8552 62.8199 52.6898 62.9338 52.5362 63.0661C51.8944 63.5933 51.3302 64.1974 50.8582 64.8627C50.3796 65.5383 50.1795 66.3527 50.295 67.1552C50.6895 67.2235 51.0961 67.1969 51.4766 67.0781C51.6712 67.027 51.856 66.9476 52.0241 66.8429Z" fill="#206301"/>
<path d="M58.4722 64.19C58.6021 64.0317 58.7193 63.8647 58.8228 63.6903C58.9291 63.5066 59.0237 63.3229 59.1143 63.1172C59.2879 62.7255 59.4314 62.3228 59.5436 61.9121C59.6521 61.5266 59.7349 61.1352 59.7917 60.7401C59.8469 60.3727 59.8823 60.0053 59.902 59.7187C59.9414 59.1272 59.9335 58.7451 59.9335 58.7451C59.9335 58.7451 59.6736 58.9876 59.3033 59.4064C58.8175 59.9042 58.365 60.4293 57.9484 60.9789C57.4227 61.6049 56.9956 62.2977 56.6801 63.0363C56.3376 63.7465 56.2748 64.5467 56.5028 65.2959C57.3063 65.2995 57.9602 64.8072 58.4722 64.19Z" fill="#206301"/>
<path d="M63.9668 60.6672C64.3388 59.9084 64.5756 59.0981 64.6679 58.2681C64.7621 57.5479 64.7871 56.8212 64.7428 56.0968C64.7152 55.5236 64.6601 55.1562 64.6601 55.1562C64.6601 55.1562 64.4316 55.4465 64.1126 55.9278C63.7016 56.5105 63.3255 57.1139 62.986 57.7354C62.8009 58.1028 62.6119 58.4702 62.4504 58.8376C62.2828 59.2068 62.151 59.5891 62.0565 59.9802C61.9663 60.3536 61.9318 60.7369 61.9541 61.1192C61.9724 61.4846 62.0759 61.8419 62.2574 62.1662C62.6339 62.0334 62.9787 61.8326 63.272 61.5754C63.5653 61.3182 63.8014 61.0096 63.9668 60.6672Z" fill="#206301"/>
<path d="M68.1302 53.9922C67.3425 55.3479 66.6926 57.0527 67.4252 58.2835C68.1513 58.0077 68.7354 57.4813 69.0559 56.8139C69.43 56.0847 69.671 55.3024 69.7688 54.4992C69.9155 53.5023 69.9472 52.4935 69.8633 51.4902C69.8633 51.4902 69.6231 51.7658 69.2883 52.225C68.866 52.7927 68.4793 53.3828 68.1302 53.9922Z" fill="#206301"/>
<path d="M0 30.8527C0.156539 36.0563 1.44852 41.1755 3.79705 45.8977C3.79718 45.9474 3.8093 45.9963 3.83249 46.041C3.99793 46.4084 4.17517 46.7501 4.35636 47.0991C3.89696 47.7594 3.62581 48.5182 3.56859 49.3035C3.50362 49.9917 3.50362 50.6838 3.56859 51.372C3.58829 51.552 3.60798 51.7394 3.63162 51.9194C3.65525 52.0994 3.69464 52.2868 3.73009 52.4595C3.80492 52.8269 3.89158 53.1943 3.98217 53.5396C4.17124 54.2561 4.37606 54.9615 4.61633 55.6118C4.8566 56.2621 5.13231 56.8169 5.36864 57.3092C5.60497 57.8015 5.80192 58.1983 5.9516 58.4812C6.02249 58.6208 6.08158 58.731 6.12491 58.8045L6.19186 58.911C6.19186 58.911 6.2155 58.7678 6.2667 58.5032C6.31791 58.2387 6.38487 57.8566 6.45577 57.401C6.6015 56.4715 6.763 55.2187 6.82602 53.8997C6.82602 53.2494 6.89298 52.5366 6.87328 51.8533C6.87328 51.574 6.84965 51.2985 6.82996 51.0229C7.53107 51.9708 8.28339 52.8857 9.06722 53.7674C8.51869 54.5665 8.26553 55.511 8.34641 56.4568C8.38931 57.117 8.50144 57.7716 8.68121 58.4114C8.77181 58.7494 8.88209 59.091 9.00026 59.4291C9.0554 59.6017 9.11843 59.7671 9.18145 59.9361C9.24447 60.1051 9.32719 60.2594 9.39808 60.421C9.70138 61.0566 10.0322 61.6739 10.3592 62.258C10.5285 62.5373 10.6861 62.8165 10.8515 63.059C11.017 63.3015 11.1863 63.5256 11.3399 63.7313C11.9505 64.5506 12.4034 65.065 12.4034 65.065C12.4034 65.065 12.4271 64.4735 12.4034 63.566C12.4034 63.1104 12.3798 62.5777 12.3483 62.0045C12.3168 61.4314 12.2537 60.8252 12.2025 60.1675C12.1513 59.5099 12.0529 58.8559 11.9308 58.2166C11.8638 57.8933 11.7929 57.5774 11.7062 57.2724C11.6669 57.1181 11.6157 56.9712 11.5723 56.8132C11.529 56.6552 11.4817 56.5046 11.4345 56.3539L11.3872 56.2253C12.4901 57.3275 13.6245 58.3452 14.7549 59.3262C14.1365 60.1786 14.0262 61.2477 14.2626 62.4197C14.3209 62.7235 14.4066 63.0221 14.5186 63.3125C14.6289 63.6064 14.7549 63.904 14.9125 64.1979C15.2062 64.7996 15.5445 65.3815 15.9247 65.9394C16.3186 66.4685 16.7322 66.9718 17.1419 67.409C17.4989 67.8249 17.8858 68.2177 18.2999 68.5847C19.0167 69.2129 19.5249 69.5914 19.5249 69.5914C19.5249 69.5914 19.4579 69.0292 19.3043 68.1805C19.2255 67.7543 19.127 67.2584 19.0049 66.7109C18.9419 66.4464 18.871 66.1708 18.804 65.8806C18.7371 65.5904 18.6583 65.2928 18.5756 64.9952C18.4167 64.3948 18.2248 63.8025 18.0005 63.2206C17.885 62.9341 17.7629 62.6548 17.6342 62.383C17.5082 62.1037 17.3742 61.8282 17.2403 61.5673C17.1458 61.3983 17.0473 61.2403 16.941 61.086C18.243 62.0853 19.6257 62.9893 21.0768 63.7901C20.68 64.7508 20.6984 65.8177 21.128 66.766C21.1792 66.8983 21.2383 67.0342 21.3013 67.1702C21.3643 67.3061 21.4391 67.42 21.514 67.5376C21.6652 67.7906 21.8308 68.0359 22.0103 68.2724C22.3817 68.7706 22.7911 69.2434 23.2352 69.6869C23.6701 70.0876 24.1263 70.4678 24.602 70.8258C25.0041 71.137 25.425 71.4264 25.8625 71.6929C26.6187 72.1374 27.1465 72.3909 27.1465 72.3909C27.1465 72.3909 27.0126 71.8729 26.7526 71.1014C26.6187 70.7156 26.4612 70.2674 26.2682 69.7897C26.0751 69.3121 25.8743 68.772 25.6222 68.2503C25.3822 67.7207 25.11 67.2043 24.8068 66.7036C24.6572 66.4501 24.4957 66.2223 24.3302 65.9688C24.1728 65.7326 24.0018 65.5045 23.8182 65.2854C23.7276 65.1825 23.637 65.0797 23.5425 64.9841C24.8227 65.5609 26.1379 66.0676 27.4813 66.5015L28.0446 66.6779C27.8087 67.6258 27.9783 68.6222 28.5172 69.4554C28.7998 69.9238 29.1497 70.3539 29.5571 70.734C29.9721 71.1319 30.4184 71.5003 30.8924 71.8362C31.7435 72.3971 32.6495 72.8818 33.5984 73.2837C34.0166 73.4544 34.4439 73.6052 34.8785 73.7356C34.8785 73.7356 34.6973 73.2654 34.3664 72.5746C34.2049 72.2293 34.0001 71.8398 33.7677 71.4026C33.5353 70.9654 33.2714 70.4988 32.9799 70.0432C32.4126 69.1314 31.7097 68.2989 30.8924 67.5707L30.7742 67.4788C32.271 67.8903 33.7874 68.2467 35.3117 68.5442C35.297 69.3414 35.575 70.1192 36.0995 70.7486C36.2573 70.9493 36.4297 71.1396 36.6155 71.3181C36.8062 71.494 37.0074 71.6595 37.2182 71.8141C37.651 72.1302 38.1107 72.4128 38.5928 72.6591C38.8291 72.7804 39.0733 72.8979 39.3057 73.0045C39.5381 73.111 39.7666 73.1955 39.9911 73.28C40.4362 73.449 40.8576 73.585 41.22 73.6952C41.6192 73.8225 42.0271 73.9244 42.4411 74.0001C42.4411 74.0001 42.2362 73.574 41.8778 72.942C41.4412 72.1521 40.9409 71.3943 40.381 70.6752C40.0677 70.2733 39.7242 69.8927 39.353 69.5362C39.1994 69.3856 39.0418 69.246 38.8764 69.1101C40.1723 69.2717 41.476 69.3819 42.7759 69.4297C42.9078 70.0166 43.2041 70.5604 43.6345 71.0058C43.9702 71.3573 44.3527 71.6672 44.7729 71.928C45.2107 72.1856 45.6704 72.4093 46.1475 72.5967C46.6065 72.7862 47.0806 72.9422 47.5655 73.0633C48.0224 73.1735 48.4596 73.258 48.8338 73.3204C49.208 73.3829 49.5231 73.427 49.7437 73.4527C49.9642 73.4784 50.0942 73.4711 50.0942 73.4711C50.0942 73.4711 50.0312 73.3829 49.9209 73.2139C49.8106 73.0449 49.6452 72.8098 49.4404 72.5232C48.9331 71.8214 48.3737 71.1535 47.7664 70.5245C47.597 70.3519 47.4198 70.1792 47.2386 70.0175C47.0574 69.8559 46.8722 69.6795 46.6753 69.5252C46.6241 69.4811 46.5729 69.4444 46.5178 69.404C47.78 69.3361 49.0371 69.2024 50.2833 69.0035C50.4606 69.5533 50.8088 70.0417 51.2838 70.407C52.0633 70.9781 52.9844 71.3572 53.9622 71.5092C54.2103 71.5606 54.4624 71.6084 54.7106 71.6414C54.9587 71.6745 55.199 71.6782 55.4392 71.6892C55.9119 71.6892 56.3609 71.6892 56.743 71.6892C57.0533 71.684 57.3627 71.657 57.6686 71.6084L58.0192 71.5569C58.0192 71.5569 57.7238 71.2446 57.2314 70.8221C56.6272 70.2604 55.9852 69.7351 55.3093 69.2497C54.9339 68.9798 54.539 68.7343 54.1276 68.5149C53.974 68.4267 53.8164 68.3495 53.6628 68.2761C55.045 67.9234 56.4026 67.4915 57.7277 66.9828C57.9563 67.5727 58.4207 68.0572 59.0236 68.3348C59.8934 68.6787 60.8385 68.8248 61.7808 68.761C62.6919 68.6894 63.5923 68.5281 64.4671 68.2797C65.1761 68.0519 65.6487 67.8609 65.6487 67.8609C65.6487 67.8609 65.3179 67.6294 64.7901 67.3282C64.5222 67.1775 64.2071 67.0085 63.8605 66.8395C63.5139 66.6705 63.1161 66.4721 62.7104 66.3105C62.3015 66.1419 61.8803 66.0007 61.4499 65.888C61.2333 65.8365 61.0167 65.7924 60.8 65.7594L60.5637 65.7263C62.0197 65.0097 63.4189 64.1969 64.7507 63.2941C64.8699 63.5733 65.0543 63.8243 65.2903 64.0289C65.5826 64.2644 65.9355 64.4252 66.3144 64.4955C66.7351 64.5778 67.1667 64.6001 67.5945 64.5616C68.0629 64.5336 68.5259 64.4521 68.9731 64.3191C69.812 64.0763 70.6255 63.7627 71.4034 63.3823C72.0297 63.0516 72.4354 62.7981 72.4354 62.7981C72.4354 62.7981 72.0966 62.6365 71.5609 62.4307C70.883 62.1876 70.1865 61.9924 69.4773 61.8466C68.6519 61.6649 67.7954 61.6424 66.9604 61.7804L66.787 61.8098C68.205 60.7076 69.6151 59.5172 71.1001 58.1983C71.8367 59.6679 73.6446 59.4034 75.3186 58.731C76.0729 58.3995 76.7962 58.01 77.481 57.5663C78.0482 57.1989 78.4106 56.9307 78.4106 56.9307C77.4786 56.6139 76.5046 56.4174 75.5155 56.3466C74.7077 56.2894 73.8957 56.3793 73.1247 56.6111C72.966 56.6639 72.8108 56.7252 72.6599 56.7948C73.6918 55.7588 74.6151 54.6331 75.4171 53.4331C66.6965 61.8245 56.4437 67.9601 45.2337 68.2062C41.1609 68.2907 37.163 67.556 33.2005 66.6926C28.7299 65.7153 24.3027 64.3375 20.285 61.8612C14.0812 58.1086 9.04327 52.9014 5.67588 46.7611C5.67588 46.7611 1.46131 37.2087 2.13092 27.333" fill="#206301"/>
</svg>
