<svg width="120" height="30" viewBox="0 0 120 30" fill="none" xmlns="http://www.w3.org/2000/svg">
<path d="M4.57685 25.5747C1.49971 22.6718 0 19.1456 0 15.0003C0 10.855 1.49971 7.32682 4.57685 4.35486C7.57907 1.45193 11.2261 0.000457764 15.518 0.000457764C19.8071 0.000457764 23.4556 1.45193 26.5306 4.35486C29.5342 7.32682 31.036 10.8509 31.036 15.0003C31.0233 16.0243 30.9036 17.0445 30.679 18.0453H6.50715C6.91982 19.2364 7.60387 20.3228 8.50887 21.2244C9.36355 22.1916 10.4433 22.9492 11.6595 23.4351C12.8639 23.9841 14.18 24.2664 15.5117 24.2613C17.2811 24.2617 19.0151 23.7828 20.5171 22.8788L24.7536 27.0262C22.1087 28.9971 18.8512 30.0446 15.5117 29.9981C11.2268 29.9981 7.57837 28.5467 4.57685 25.5747ZM24.6717 12.3796C24.3891 11.4221 23.9548 10.5126 23.3842 9.68367C22.767 8.92656 22.0724 8.23149 21.311 7.609C19.653 6.39834 17.6317 5.74333 15.5537 5.74333C13.4757 5.74333 11.4544 6.39834 9.79643 7.609C8.13108 8.78206 6.92226 10.4623 6.36432 12.3796H24.6717Z" fill="white"/>
<path d="M38.0452 27.3713C37.1752 26.5546 36.4857 25.5758 36.0185 24.4941C35.5513 23.4124 35.3162 22.2503 35.3273 21.0782H41.2631C41.2968 21.9109 41.6542 22.7007 42.2639 23.29C42.8736 23.8793 43.6908 24.2246 44.5524 24.2572C45.1514 24.2704 45.7434 24.1303 46.2684 23.8512C46.7577 23.5499 47.1728 23.1487 47.4846 22.6758C47.799 22.1848 47.9689 21.6202 47.9758 21.0428C47.9828 20.4654 47.8266 19.8971 47.524 19.3992C47.2215 18.9012 46.784 18.4925 46.2589 18.2171C45.7338 17.9417 45.1408 17.81 44.544 17.8363V17.9073C42.0993 17.8631 39.7686 16.9001 38.0464 15.2227C36.3241 13.5453 35.3457 11.2854 35.3188 8.92242C35.3299 7.44892 35.7159 6.00068 36.4427 4.70536C37.1695 3.41004 38.2149 2.30741 39.4866 1.49468C40.7584 0.681943 42.2175 0.184052 43.7354 0.0449042C45.2532 -0.0942433 46.7831 0.129615 48.1903 0.696757C50.3968 1.63014 52.1585 3.33275 53.1242 5.46529C53.6078 6.55527 53.8517 7.73046 53.8405 8.91633H47.9131C47.9042 8.28757 47.7054 7.67502 47.3411 7.15401C46.9768 6.63301 46.4629 6.22627 45.8626 5.98384C45.2622 5.7414 44.6017 5.67385 43.9621 5.78946C43.3226 5.90507 42.732 6.19882 42.2629 6.63458C41.9466 6.93059 41.6952 7.28503 41.5234 7.67683C41.3517 8.06863 41.2632 8.48981 41.2632 8.91532C41.2632 9.34083 41.3517 9.76199 41.5234 10.1538C41.6952 10.5456 41.9466 10.9 42.2629 11.196C42.5534 11.5029 42.9073 11.7477 43.3016 11.9144C43.6959 12.0812 44.122 12.1663 44.5524 12.1644V12.0933C46.078 12.0861 47.5818 12.4432 48.9303 13.1328C50.2788 13.8225 51.4301 14.8233 52.282 16.0465C53.1339 17.2697 53.6601 18.6773 53.8137 20.1443C53.9672 21.6113 53.7435 23.0923 53.1624 24.4556C52.5813 25.8189 51.6608 27.0225 50.4826 27.9592C49.3044 28.896 47.905 29.537 46.4089 29.8252C44.9127 30.1135 43.366 30.0402 41.9062 29.6117C40.4464 29.1833 39.1187 28.413 38.041 27.3692L38.0452 27.3713Z" fill="white"/>
<path d="M62.717 25.5746C59.6419 22.6716 58.1506 19.1373 58.1506 15.0002C58.1506 10.863 59.6524 7.32666 62.7275 4.35471C65.7311 1.45177 69.3782 0.000305176 73.6687 0.000305176C77.9598 0.000305176 81.6062 1.45178 84.6098 4.42577L80.4636 8.43303C78.5249 6.63646 76.3047 5.73919 73.6582 5.73919C72.4064 5.71872 71.1636 5.9475 70.0073 6.4113C68.8509 6.8751 67.8057 7.56398 66.9368 8.43506C65.0044 10.3007 64.076 12.4444 64.076 15.0022C64.1249 17.4435 65.1502 19.7717 66.9367 21.4984C68.7232 23.225 71.1321 24.2159 73.6582 24.2632C76.3047 24.2632 78.5207 23.3638 80.4531 21.5673L84.5993 25.5766C81.5957 28.5485 77.9493 30 73.6582 30C69.367 30 65.7122 28.5465 62.717 25.5746Z" fill="white"/>
<path d="M93.5408 25.5746C90.4637 22.6716 88.964 19.1455 88.964 15.0002C88.964 10.8549 90.4637 7.32668 93.5408 4.35473C96.5445 1.45179 100.192 0.000321766 104.482 0.000321766C107.969 -0.0220806 111.356 1.12593 114.064 3.24836V0.000321766H120V29.998H114.064V26.75C111.356 28.8724 107.969 30.0204 104.482 29.998C100.191 29.998 96.5445 28.5465 93.5408 25.5746ZM109.273 23.0167C110.741 22.2206 111.953 21.049 112.777 19.6307C113.626 18.2258 114.07 16.6271 114.064 15.0002C114.064 12.4423 113.136 10.2986 111.277 8.43305C109.345 6.63648 107.129 5.73717 104.482 5.73717C103.23 5.71719 101.988 5.9462 100.831 6.40996C99.6751 6.87373 98.6299 7.56236 97.7606 8.43305C95.8282 10.2986 94.9082 12.4383 94.9082 15.0002C94.9561 17.4418 95.981 19.7706 97.7678 21.4975C99.5545 23.2243 101.964 24.2148 104.49 24.2611C106.171 24.2655 107.822 23.8359 109.273 23.0167Z" fill="white"/>
</svg>
