<svg width="847" height="316" viewBox="0 0 847 316" fill="none" xmlns="http://www.w3.org/2000/svg">
<ellipse cx="250.988" cy="153.417" rx="88.9881" ry="6.97295" fill="url(#paint0_radial_1110_21)" fill-opacity="0.25"/>
<ellipse rx="52.4632" ry="4.31659" transform="matrix(1 0 0 -1 268.918 150.76)" fill="url(#paint1_radial_1110_21)" fill-opacity="0.25"/>
<g filter="url(#filter0_i_1110_21)">
<circle cx="267.922" cy="72.3975" r="69.3975" fill="#FFB98F"/>
</g>
<circle cx="268.397" cy="72.3975" r="69.3975" fill="url(#paint2_radial_1110_21)"/>
<path d="M246.905 56.77L249.609 60.345L252.313 56.77H254.055V66H252.235V59.708L249.635 63.049H249.583L246.983 59.708V66H245.163V56.77H246.905ZM260.282 63.777L261.985 64.167C261.725 64.791 261.331 65.2807 260.802 65.636C260.282 65.9827 259.641 66.156 258.878 66.156C257.873 66.156 257.05 65.8223 256.408 65.155C255.767 64.4877 255.446 63.6297 255.446 62.581C255.446 61.567 255.767 60.722 256.408 60.046C257.05 59.37 257.869 59.032 258.865 59.032C259.862 59.032 260.672 59.37 261.296 60.046C261.929 60.7133 262.245 61.5583 262.245 62.581L262.219 63.127H257.279C257.34 63.595 257.513 63.9547 257.799 64.206C258.085 64.4487 258.462 64.57 258.93 64.57C259.589 64.57 260.04 64.3057 260.282 63.777ZM258.852 60.514C258.436 60.514 258.094 60.631 257.825 60.865C257.557 61.0903 257.383 61.4023 257.305 61.801H260.399C260.33 61.411 260.161 61.099 259.892 60.865C259.624 60.631 259.277 60.514 258.852 60.514ZM268.211 59.916V56.25H270.057V66H268.354V65.168C267.904 65.8267 267.184 66.156 266.196 66.156C265.234 66.156 264.472 65.818 263.908 65.142C263.345 64.466 263.063 63.6167 263.063 62.594C263.063 61.5713 263.345 60.722 263.908 60.046C264.472 59.37 265.234 59.032 266.196 59.032C266.647 59.032 267.046 59.1187 267.392 59.292C267.748 59.4567 268.021 59.6647 268.211 59.916ZM267.795 63.985C268.107 63.621 268.263 63.1573 268.263 62.594C268.263 62.0307 268.107 61.567 267.795 61.203C267.492 60.839 267.089 60.657 266.586 60.657C266.084 60.657 265.676 60.839 265.364 61.203C265.061 61.567 264.909 62.0307 264.909 62.594C264.909 63.1573 265.061 63.621 265.364 63.985C265.676 64.349 266.084 64.531 266.586 64.531C267.089 64.531 267.492 64.349 267.795 63.985ZM273.473 57.992C273.265 58.2 272.997 58.304 272.667 58.304C272.338 58.304 272.069 58.2 271.861 57.992C271.653 57.784 271.549 57.5197 271.549 57.199C271.549 56.8783 271.653 56.614 271.861 56.406C272.069 56.1893 272.338 56.081 272.667 56.081C272.997 56.081 273.265 56.1893 273.473 56.406C273.681 56.614 273.785 56.8783 273.785 57.199C273.785 57.5197 273.681 57.784 273.473 57.992ZM271.744 66V59.188H273.59V66H271.744ZM278.263 64.518C278.601 64.518 278.896 64.4227 279.147 64.232C279.399 64.0413 279.559 63.7943 279.628 63.491L281.474 63.803C281.336 64.4357 280.993 64.986 280.447 65.454C279.901 65.922 279.178 66.156 278.276 66.156C277.288 66.156 276.469 65.818 275.819 65.142C275.178 64.4573 274.857 63.608 274.857 62.594C274.857 61.58 275.178 60.735 275.819 60.059C276.469 59.3743 277.288 59.032 278.276 59.032C279.178 59.032 279.901 59.266 280.447 59.734C280.993 60.202 281.336 60.7523 281.474 61.385L279.628 61.697C279.559 61.3937 279.399 61.1467 279.147 60.956C278.896 60.7653 278.601 60.67 278.263 60.67C277.778 60.67 277.397 60.8477 277.119 61.203C276.842 61.5497 276.703 62.0133 276.703 62.594C276.703 63.1747 276.842 63.6427 277.119 63.998C277.397 64.3447 277.778 64.518 278.263 64.518ZM284.147 61.437L282.379 61.112C282.491 60.5053 282.79 60.007 283.276 59.617C283.77 59.227 284.48 59.032 285.408 59.032C286.396 59.032 287.141 59.253 287.644 59.695C288.146 60.137 288.398 60.761 288.398 61.567V64.206C288.398 64.5007 288.519 64.648 288.762 64.648L288.957 64.635V66.039C288.861 66.0737 288.701 66.091 288.476 66.091C287.696 66.091 287.18 65.8093 286.929 65.246C286.365 65.8527 285.581 66.156 284.576 66.156C283.787 66.156 283.189 65.9697 282.782 65.597C282.383 65.2243 282.184 64.7433 282.184 64.154C282.184 62.9493 283.068 62.1997 284.836 61.905L286.643 61.606V61.554C286.643 60.8867 286.231 60.553 285.408 60.553C284.654 60.553 284.233 60.8477 284.147 61.437ZM286.643 62.919L285.018 63.218C284.645 63.2873 284.376 63.387 284.212 63.517C284.047 63.6383 283.965 63.803 283.965 64.011C283.965 64.4877 284.307 64.726 284.992 64.726C285.52 64.726 285.928 64.5873 286.214 64.31C286.5 64.024 286.643 63.6427 286.643 63.166V62.919ZM291.961 66H290.115V56.25H291.961V66ZM231.119 74.77L233.823 78.345L236.527 74.77H238.269V84H236.449V77.708L233.849 81.049H233.797L231.197 77.708V84H229.377V74.77H231.119ZM241.675 79.437L239.907 79.112C240.019 78.5053 240.318 78.007 240.804 77.617C241.298 77.227 242.008 77.032 242.936 77.032C243.924 77.032 244.669 77.253 245.172 77.695C245.674 78.137 245.926 78.761 245.926 79.567V82.206C245.926 82.5007 246.047 82.648 246.29 82.648L246.485 82.635V84.039C246.389 84.0737 246.229 84.091 246.004 84.091C245.224 84.091 244.708 83.8093 244.457 83.246C243.893 83.8527 243.109 84.156 242.104 84.156C241.315 84.156 240.717 83.9697 240.31 83.597C239.911 83.2243 239.712 82.7433 239.712 82.154C239.712 80.9493 240.596 80.1997 242.364 79.905L244.171 79.606V79.554C244.171 78.8867 243.759 78.553 242.936 78.553C242.182 78.553 241.761 78.8477 241.675 79.437ZM244.171 80.919L242.546 81.218C242.173 81.2873 241.904 81.387 241.74 81.517C241.575 81.6383 241.493 81.803 241.493 82.011C241.493 82.4877 241.835 82.726 242.52 82.726C243.048 82.726 243.456 82.5873 243.742 82.31C244.028 82.024 244.171 81.6427 244.171 81.166V80.919ZM249.345 77.188V78.02C249.701 77.3613 250.377 77.032 251.373 77.032C252.179 77.032 252.799 77.279 253.232 77.773C253.666 78.2583 253.882 78.917 253.882 79.749V84H252.036V79.957C252.036 79.0643 251.651 78.618 250.879 78.618C250.437 78.618 250.095 78.7523 249.852 79.021C249.61 79.281 249.488 79.6407 249.488 80.1V84H247.642V77.188H249.345ZM257.099 79.437L255.331 79.112C255.444 78.5053 255.743 78.007 256.228 77.617C256.722 77.227 257.433 77.032 258.36 77.032C259.348 77.032 260.094 77.253 260.596 77.695C261.099 78.137 261.35 78.761 261.35 79.567V82.206C261.35 82.5007 261.472 82.648 261.714 82.648L261.909 82.635V84.039C261.814 84.0737 261.654 84.091 261.428 84.091C260.648 84.091 260.133 83.8093 259.881 83.246C259.318 83.8527 258.534 84.156 257.528 84.156C256.74 84.156 256.142 83.9697 255.734 83.597C255.336 83.2243 255.136 82.7433 255.136 82.154C255.136 80.9493 256.02 80.1997 257.788 79.905L259.595 79.606V79.554C259.595 78.8867 259.184 78.553 258.36 78.553C257.606 78.553 257.186 78.8477 257.099 79.437ZM259.595 80.919L257.97 81.218C257.598 81.2873 257.329 81.387 257.164 81.517C257 81.6383 256.917 81.803 256.917 82.011C256.917 82.4877 257.26 82.726 257.944 82.726C258.473 82.726 258.88 82.5873 259.166 82.31C259.452 82.024 259.595 81.6427 259.595 81.166V80.919ZM262.937 79.515C262.937 78.813 263.189 78.2237 263.691 77.747C264.203 77.2617 264.874 77.019 265.706 77.019C266.252 77.019 266.729 77.1143 267.136 77.305C267.249 76.9843 267.457 76.733 267.76 76.551C268.064 76.369 268.415 76.278 268.813 76.278L269.203 76.317V77.76C269.203 77.734 269.099 77.721 268.891 77.721C268.744 77.721 268.601 77.773 268.462 77.877C268.324 77.9723 268.254 78.1197 268.254 78.319V78.449C268.402 78.7697 268.475 79.125 268.475 79.515C268.475 80.2517 268.224 80.854 267.721 81.322C267.219 81.7813 266.547 82.011 265.706 82.011C265.455 82.011 265.221 81.9937 265.004 81.959C264.796 81.9157 264.649 81.8723 264.562 81.829L264.432 81.764C264.328 81.868 264.276 81.998 264.276 82.154C264.276 82.284 264.32 82.388 264.406 82.466C264.493 82.544 264.588 82.583 264.692 82.583H266.928C267.7 82.583 268.28 82.7693 268.67 83.142C269.069 83.5147 269.268 84.0043 269.268 84.611C269.268 85.3303 268.965 85.9067 268.358 86.34C267.752 86.7733 266.85 86.99 265.654 86.99C263.574 86.99 262.534 86.366 262.534 85.118C262.534 84.5287 262.816 84.0693 263.379 83.74C262.955 83.4367 262.742 83.0163 262.742 82.479C262.742 81.907 262.981 81.4433 263.457 81.088C263.111 80.6633 262.937 80.139 262.937 79.515ZM266.824 84.208H264.588C264.346 84.3207 264.224 84.494 264.224 84.728C264.224 84.9967 264.337 85.196 264.562 85.326C264.796 85.456 265.191 85.521 265.745 85.521C266.976 85.521 267.591 85.261 267.591 84.741C267.591 84.3857 267.336 84.208 266.824 84.208ZM264.861 80.295C265.078 80.4857 265.36 80.581 265.706 80.581C266.053 80.581 266.33 80.4857 266.538 80.295C266.755 80.1043 266.863 79.8443 266.863 79.515C266.863 79.1857 266.759 78.9257 266.551 78.735C266.343 78.5443 266.062 78.449 265.706 78.449C265.351 78.449 265.069 78.5443 264.861 78.735C264.653 78.9257 264.549 79.1857 264.549 79.515C264.549 79.8443 264.653 80.1043 264.861 80.295ZM274.406 81.777L276.109 82.167C275.849 82.791 275.454 83.2807 274.926 83.636C274.406 83.9827 273.764 84.156 273.002 84.156C271.996 84.156 271.173 83.8223 270.532 83.155C269.89 82.4877 269.57 81.6297 269.57 80.581C269.57 79.567 269.89 78.722 270.532 78.046C271.173 77.37 271.992 77.032 272.989 77.032C273.985 77.032 274.796 77.37 275.42 78.046C276.052 78.7133 276.369 79.5583 276.369 80.581L276.343 81.127H271.403C271.463 81.595 271.637 81.9547 271.923 82.206C272.209 82.4487 272.586 82.57 273.054 82.57C273.712 82.57 274.163 82.3057 274.406 81.777ZM272.976 78.514C272.56 78.514 272.217 78.631 271.949 78.865C271.68 79.0903 271.507 79.4023 271.429 79.801H274.523C274.453 79.411 274.284 79.099 274.016 78.865C273.747 78.631 273.4 78.514 272.976 78.514ZM283.726 80.126V84H281.88V79.957C281.88 79.0643 281.516 78.618 280.788 78.618C280.363 78.618 280.034 78.748 279.8 79.008C279.575 79.268 279.462 79.6277 279.462 80.087V84H277.616V77.188H279.319V78.02C279.674 77.3613 280.329 77.032 281.282 77.032C282.183 77.032 282.842 77.3527 283.258 77.994C283.839 77.3527 284.593 77.032 285.52 77.032C286.317 77.032 286.928 77.279 287.353 77.773C287.778 78.267 287.99 78.9257 287.99 79.749V84H286.144V79.957C286.144 79.0643 285.78 78.618 285.052 78.618C284.619 78.618 284.289 78.7523 284.064 79.021C283.839 79.281 283.726 79.6493 283.726 80.126ZM294.02 81.777L295.723 82.167C295.463 82.791 295.069 83.2807 294.54 83.636C294.02 83.9827 293.379 84.156 292.616 84.156C291.611 84.156 290.787 83.8223 290.146 83.155C289.505 82.4877 289.184 81.6297 289.184 80.581C289.184 79.567 289.505 78.722 290.146 78.046C290.787 77.37 291.606 77.032 292.603 77.032C293.6 77.032 294.41 77.37 295.034 78.046C295.667 78.7133 295.983 79.5583 295.983 80.581L295.957 81.127H291.017C291.078 81.595 291.251 81.9547 291.537 82.206C291.823 82.4487 292.2 82.57 292.668 82.57C293.327 82.57 293.777 82.3057 294.02 81.777ZM292.59 78.514C292.174 78.514 291.832 78.631 291.563 78.865C291.294 79.0903 291.121 79.4023 291.043 79.801H294.137C294.068 79.411 293.899 79.099 293.63 78.865C293.361 78.631 293.015 78.514 292.59 78.514ZM298.933 77.188V78.02C299.289 77.3613 299.965 77.032 300.961 77.032C301.767 77.032 302.387 77.279 302.82 77.773C303.254 78.2583 303.47 78.917 303.47 79.749V84H301.624V79.957C301.624 79.0643 301.239 78.618 300.467 78.618C300.025 78.618 299.683 78.7523 299.44 79.021C299.198 79.281 299.076 79.6407 299.076 80.1V84H297.23V77.188H298.933ZM308.299 82.362V83.961C308.091 84.013 307.801 84.039 307.428 84.039C306.033 84.039 305.335 83.3457 305.335 81.959V78.644H304.412V77.188H305.335V75.498H307.181V77.188H308.312V78.644H307.181V81.764C307.181 82.206 307.411 82.427 307.87 82.427L308.299 82.362Z" fill="#573939"/>
<ellipse cx="616.988" cy="153.417" rx="88.9881" ry="6.97295" fill="url(#paint3_radial_1110_21)" fill-opacity="0.25"/>
<ellipse rx="52.4632" ry="4.31659" transform="matrix(1 0 0 -1 634.918 150.76)" fill="url(#paint4_radial_1110_21)" fill-opacity="0.25"/>
<g filter="url(#filter1_i_1110_21)">
<circle cx="633.922" cy="72.3975" r="69.3975" fill="#77D1AA"/>
</g>
<circle cx="634.397" cy="72.3975" r="69.3975" fill="url(#paint5_radial_1110_21)"/>
<path d="M610.175 64.843C609.3 63.959 608.862 62.802 608.862 61.372C608.862 59.942 609.3 58.785 610.175 57.901C611.05 57.017 612.16 56.575 613.503 56.575C614.595 56.575 615.54 56.8653 616.337 57.446C617.134 58.018 617.654 58.798 617.897 59.786L615.947 60.189C615.808 59.617 615.522 59.175 615.089 58.863C614.656 58.5423 614.127 58.382 613.503 58.382C612.671 58.382 612.021 58.6507 611.553 59.188C611.094 59.7253 610.864 60.4533 610.864 61.372C610.864 62.2907 611.094 63.0187 611.553 63.556C612.021 64.0933 612.671 64.362 613.503 64.362C614.127 64.362 614.656 64.206 615.089 63.894C615.522 63.5733 615.808 63.127 615.947 62.555L617.897 62.958C617.654 63.946 617.134 64.7303 616.337 65.311C615.54 65.883 614.595 66.169 613.503 66.169C612.16 66.169 611.05 65.727 610.175 64.843ZM623.467 63.062V59.188H625.313V66H623.61V65.168C623.255 65.8267 622.588 66.156 621.608 66.156C620.811 66.156 620.196 65.9133 619.762 65.428C619.338 64.934 619.125 64.271 619.125 63.439V59.188H620.971V63.231C620.971 64.1237 621.348 64.57 622.102 64.57C622.553 64.57 622.891 64.44 623.116 64.18C623.35 63.92 623.467 63.5473 623.467 63.062ZM628.844 66H626.998V56.25H628.844V66ZM632.269 57.992C632.061 58.2 631.792 58.304 631.463 58.304C631.133 58.304 630.865 58.2 630.657 57.992C630.449 57.784 630.345 57.5197 630.345 57.199C630.345 56.8783 630.449 56.614 630.657 56.406C630.865 56.1893 631.133 56.081 631.463 56.081C631.792 56.081 632.061 56.1893 632.269 56.406C632.477 56.614 632.581 56.8783 632.581 57.199C632.581 57.5197 632.477 57.784 632.269 57.992ZM630.54 66V59.188H632.386V66H630.54ZM635.785 59.188V60.02C636.14 59.3613 636.816 59.032 637.813 59.032C638.619 59.032 639.238 59.279 639.672 59.773C640.105 60.2583 640.322 60.917 640.322 61.749V66H638.476V61.957C638.476 61.0643 638.09 60.618 637.319 60.618C636.877 60.618 636.534 60.7523 636.292 61.021C636.049 61.281 635.928 61.6407 635.928 62.1V66H634.082V59.188H635.785ZM643.539 61.437L641.771 61.112C641.884 60.5053 642.183 60.007 642.668 59.617C643.162 59.227 643.873 59.032 644.8 59.032C645.788 59.032 646.533 59.253 647.036 59.695C647.539 60.137 647.79 60.761 647.79 61.567V64.206C647.79 64.5007 647.911 64.648 648.154 64.648L648.349 64.635V66.039C648.254 66.0737 648.093 66.091 647.868 66.091C647.088 66.091 646.572 65.8093 646.321 65.246C645.758 65.8527 644.973 66.156 643.968 66.156C643.179 66.156 642.581 65.9697 642.174 65.597C641.775 65.2243 641.576 64.7433 641.576 64.154C641.576 62.9493 642.46 62.1997 644.228 61.905L646.035 61.606V61.554C646.035 60.8867 645.623 60.553 644.8 60.553C644.046 60.553 643.626 60.8477 643.539 61.437ZM646.035 62.919L644.41 63.218C644.037 63.2873 643.769 63.387 643.604 63.517C643.439 63.6383 643.357 63.803 643.357 64.011C643.357 64.4877 643.699 64.726 644.384 64.726C644.913 64.726 645.32 64.5873 645.606 64.31C645.892 64.024 646.035 63.6427 646.035 63.166V62.919ZM653.355 59.136V60.865C653.225 60.839 653.103 60.826 652.991 60.826C652.445 60.826 652.033 60.969 651.756 61.255C651.487 61.541 651.353 61.9917 651.353 62.607V66H649.507V59.188H651.21V60.072C651.6 59.4393 652.241 59.123 653.134 59.123L653.355 59.136ZM656.202 65.896L653.511 59.188H655.474L657.112 63.738L658.763 59.188H660.687L657.736 66.559C657.407 67.3823 657.013 67.9673 656.553 68.314C656.094 68.6693 655.544 68.847 654.902 68.847L654.343 68.808V67.222C654.439 67.2393 654.556 67.248 654.694 67.248C655.006 67.248 655.271 67.1787 655.487 67.04C655.704 66.91 655.895 66.6413 656.059 66.234L656.202 65.896ZM608.9 74.77L611.604 78.345L614.308 74.77H616.05V84H614.23V77.708L611.63 81.049H611.578L608.978 77.708V84H607.158V74.77H608.9ZM622.277 81.777L623.98 82.167C623.72 82.791 623.326 83.2807 622.797 83.636C622.277 83.9827 621.636 84.156 620.873 84.156C619.868 84.156 619.044 83.8223 618.403 83.155C617.762 82.4877 617.441 81.6297 617.441 80.581C617.441 79.567 617.762 78.722 618.403 78.046C619.044 77.37 619.863 77.032 620.86 77.032C621.857 77.032 622.667 77.37 623.291 78.046C623.924 78.7133 624.24 79.5583 624.24 80.581L624.214 81.127H619.274C619.335 81.595 619.508 81.9547 619.794 82.206C620.08 82.4487 620.457 82.57 620.925 82.57C621.584 82.57 622.034 82.3057 622.277 81.777ZM620.847 78.514C620.431 78.514 620.089 78.631 619.82 78.865C619.551 79.0903 619.378 79.4023 619.3 79.801H622.394C622.325 79.411 622.156 79.099 621.887 78.865C621.618 78.631 621.272 78.514 620.847 78.514ZM630.206 77.916V74.25H632.052V84H630.349V83.168C629.898 83.8267 629.179 84.156 628.191 84.156C627.229 84.156 626.466 83.818 625.903 83.142C625.34 82.466 625.058 81.6167 625.058 80.594C625.058 79.5713 625.34 78.722 625.903 78.046C626.466 77.37 627.229 77.032 628.191 77.032C628.642 77.032 629.04 77.1187 629.387 77.292C629.742 77.4567 630.015 77.6647 630.206 77.916ZM629.79 81.985C630.102 81.621 630.258 81.1573 630.258 80.594C630.258 80.0307 630.102 79.567 629.79 79.203C629.487 78.839 629.084 78.657 628.581 78.657C628.078 78.657 627.671 78.839 627.359 79.203C627.056 79.567 626.904 80.0307 626.904 80.594C626.904 81.1573 627.056 81.621 627.359 81.985C627.671 82.349 628.078 82.531 628.581 82.531C629.084 82.531 629.487 82.349 629.79 81.985ZM635.468 75.992C635.26 76.2 634.991 76.304 634.662 76.304C634.333 76.304 634.064 76.2 633.856 75.992C633.648 75.784 633.544 75.5197 633.544 75.199C633.544 74.8783 633.648 74.614 633.856 74.406C634.064 74.1893 634.333 74.081 634.662 74.081C634.991 74.081 635.26 74.1893 635.468 74.406C635.676 74.614 635.78 74.8783 635.78 75.199C635.78 75.5197 635.676 75.784 635.468 75.992ZM633.739 84V77.188H635.585V84H633.739ZM640.258 82.518C640.596 82.518 640.891 82.4227 641.142 82.232C641.393 82.0413 641.554 81.7943 641.623 81.491L643.469 81.803C643.33 82.4357 642.988 82.986 642.442 83.454C641.896 83.922 641.172 84.156 640.271 84.156C639.283 84.156 638.464 83.818 637.814 83.142C637.173 82.4573 636.852 81.608 636.852 80.594C636.852 79.58 637.173 78.735 637.814 78.059C638.464 77.3743 639.283 77.032 640.271 77.032C641.172 77.032 641.896 77.266 642.442 77.734C642.988 78.202 643.33 78.7523 643.469 79.385L641.623 79.697C641.554 79.3937 641.393 79.1467 641.142 78.956C640.891 78.7653 640.596 78.67 640.258 78.67C639.773 78.67 639.391 78.8477 639.114 79.203C638.837 79.5497 638.698 80.0133 638.698 80.594C638.698 81.1747 638.837 81.6427 639.114 81.998C639.391 82.3447 639.773 82.518 640.258 82.518ZM646.361 75.992C646.153 76.2 645.884 76.304 645.555 76.304C645.225 76.304 644.957 76.2 644.749 75.992C644.541 75.784 644.437 75.5197 644.437 75.199C644.437 74.8783 644.541 74.614 644.749 74.406C644.957 74.1893 645.225 74.081 645.555 74.081C645.884 74.081 646.153 74.1893 646.361 74.406C646.569 74.614 646.673 74.8783 646.673 75.199C646.673 75.5197 646.569 75.784 646.361 75.992ZM644.632 84V77.188H646.478V84H644.632ZM649.877 77.188V78.02C650.232 77.3613 650.908 77.032 651.905 77.032C652.711 77.032 653.33 77.279 653.764 77.773C654.197 78.2583 654.414 78.917 654.414 79.749V84H652.568V79.957C652.568 79.0643 652.182 78.618 651.411 78.618C650.969 78.618 650.626 78.7523 650.384 79.021C650.141 79.281 650.02 79.6407 650.02 80.1V84H648.174V77.188H649.877ZM660.452 81.777L662.155 82.167C661.895 82.791 661.5 83.2807 660.972 83.636C660.452 83.9827 659.81 84.156 659.048 84.156C658.042 84.156 657.219 83.8223 656.578 83.155C655.936 82.4877 655.616 81.6297 655.616 80.581C655.616 79.567 655.936 78.722 656.578 78.046C657.219 77.37 658.038 77.032 659.035 77.032C660.031 77.032 660.842 77.37 661.466 78.046C662.098 78.7133 662.415 79.5583 662.415 80.581L662.389 81.127H657.449C657.509 81.595 657.683 81.9547 657.969 82.206C658.255 82.4487 658.632 82.57 659.1 82.57C659.758 82.57 660.209 82.3057 660.452 81.777ZM659.022 78.514C658.606 78.514 658.263 78.631 657.995 78.865C657.726 79.0903 657.553 79.4023 657.475 79.801H660.569C660.499 79.411 660.33 79.099 660.062 78.865C659.793 78.631 659.446 78.514 659.022 78.514Z" fill="#573939"/>
<ellipse cx="413.5" cy="301.718" rx="178.5" ry="13.9869" fill="url(#paint6_radial_1110_21)" fill-opacity="0.25"/>
<ellipse rx="105.235" ry="8.65858" transform="matrix(1 0 0 -1 449.466 296.39)" fill="url(#paint7_radial_1110_21)" fill-opacity="0.25"/>
<g filter="url(#filter2_i_1110_21)">
<circle cx="447.469" cy="139.203" r="139.203" fill="#FFB1A9"/>
</g>
<circle cx="447.203" cy="139.203" r="139.203" fill="url(#paint8_radial_1110_21)"/>
<path d="M373.164 144.508C371.279 142.604 370.336 140.112 370.336 137.032C370.336 133.952 371.279 131.46 373.164 129.556C375.049 127.652 377.439 126.7 380.332 126.7C382.684 126.7 384.719 127.325 386.436 128.576C388.153 129.808 389.273 131.488 389.796 133.616L385.596 134.484C385.297 133.252 384.681 132.3 383.748 131.628C382.815 130.937 381.676 130.592 380.332 130.592C378.54 130.592 377.14 131.171 376.132 132.328C375.143 133.485 374.648 135.053 374.648 137.032C374.648 139.011 375.143 140.579 376.132 141.736C377.14 142.893 378.54 143.472 380.332 143.472C381.676 143.472 382.815 143.136 383.748 142.464C384.681 141.773 385.297 140.812 385.596 139.58L389.796 140.448C389.273 142.576 388.153 144.265 386.436 145.516C384.719 146.748 382.684 147.364 380.332 147.364C377.439 147.364 375.049 146.412 373.164 144.508ZM404.93 145.124C403.511 146.599 401.654 147.336 399.358 147.336C397.062 147.336 395.204 146.599 393.786 145.124C392.367 143.631 391.658 141.811 391.658 139.664C391.658 137.517 392.367 135.707 393.786 134.232C395.204 132.739 397.062 131.992 399.358 131.992C401.654 131.992 403.511 132.739 404.93 134.232C406.348 135.707 407.058 137.517 407.058 139.664C407.058 141.811 406.348 143.631 404.93 145.124ZM396.67 136.612C395.979 137.359 395.634 138.376 395.634 139.664C395.634 140.952 395.979 141.969 396.67 142.716C397.379 143.463 398.275 143.836 399.358 143.836C400.44 143.836 401.327 143.463 402.018 142.716C402.727 141.969 403.082 140.952 403.082 139.664C403.082 138.376 402.727 137.359 402.018 136.612C401.327 135.865 400.44 135.492 399.358 135.492C398.275 135.492 397.379 135.865 396.67 136.612ZM422.941 138.656V147H418.965V138.292C418.965 136.369 418.181 135.408 416.613 135.408C415.698 135.408 414.989 135.688 414.485 136.248C414 136.808 413.757 137.583 413.757 138.572V147H409.781V132.328H413.449V134.12C414.214 132.701 415.624 131.992 417.677 131.992C419.618 131.992 421.037 132.683 421.933 134.064C423.184 132.683 424.808 131.992 426.805 131.992C428.522 131.992 429.838 132.524 430.753 133.588C431.668 134.652 432.125 136.071 432.125 137.844V147H428.149V138.292C428.149 136.369 427.365 135.408 425.797 135.408C424.864 135.408 424.154 135.697 423.669 136.276C423.184 136.836 422.941 137.629 422.941 138.656ZM448.781 138.656V147H444.805V138.292C444.805 136.369 444.021 135.408 442.453 135.408C441.538 135.408 440.829 135.688 440.325 136.248C439.839 136.808 439.597 137.583 439.597 138.572V147H435.621V132.328H439.289V134.12C440.054 132.701 441.463 131.992 443.517 131.992C445.458 131.992 446.877 132.683 447.773 134.064C449.023 132.683 450.647 131.992 452.645 131.992C454.362 131.992 455.678 132.524 456.593 133.588C457.507 134.652 457.965 136.071 457.965 137.844V147H453.989V138.292C453.989 136.369 453.205 135.408 451.637 135.408C450.703 135.408 449.994 135.697 449.509 136.276C449.023 136.836 448.781 137.629 448.781 138.656ZM470.673 140.672V132.328H474.649V147H470.981V145.208C470.215 146.627 468.778 147.336 466.669 147.336C464.951 147.336 463.626 146.813 462.693 145.768C461.778 144.704 461.321 143.276 461.321 141.484V132.328H465.297V141.036C465.297 142.959 466.109 143.92 467.733 143.92C468.703 143.92 469.431 143.64 469.917 143.08C470.421 142.52 470.673 141.717 470.673 140.672ZM481.945 132.328V134.12C482.71 132.701 484.166 131.992 486.313 131.992C488.049 131.992 489.384 132.524 490.317 133.588C491.25 134.633 491.717 136.052 491.717 137.844V147H487.741V138.292C487.741 136.369 486.91 135.408 485.249 135.408C484.297 135.408 483.56 135.697 483.037 136.276C482.514 136.836 482.253 137.611 482.253 138.6V147H478.277V132.328H481.945ZM498.954 129.752C498.506 130.2 497.927 130.424 497.218 130.424C496.509 130.424 495.93 130.2 495.482 129.752C495.034 129.304 494.81 128.735 494.81 128.044C494.81 127.353 495.034 126.784 495.482 126.336C495.93 125.869 496.509 125.636 497.218 125.636C497.927 125.636 498.506 125.869 498.954 126.336C499.402 126.784 499.626 127.353 499.626 128.044C499.626 128.735 499.402 129.304 498.954 129.752ZM495.23 147V132.328H499.206V147H495.23ZM509.747 143.472V146.916C509.299 147.028 508.674 147.084 507.871 147.084C504.866 147.084 503.363 145.591 503.363 142.604V135.464H501.375V132.328H503.363V128.688H507.339V132.328H509.775V135.464H507.339V142.184C507.339 143.136 507.834 143.612 508.823 143.612L509.747 143.472ZM516.187 146.776L510.391 132.328H514.619L518.147 142.128L521.703 132.328H525.847L519.491 148.204C518.781 149.977 517.932 151.237 516.943 151.984C515.953 152.749 514.768 153.132 513.387 153.132L512.183 153.048V149.632C512.388 149.669 512.64 149.688 512.939 149.688C513.611 149.688 514.18 149.539 514.647 149.24C515.113 148.96 515.524 148.381 515.879 147.504L516.187 146.776Z" fill="#573939"/>
<ellipse cx="729.437" cy="252.503" rx="117.437" ry="9.20213" fill="url(#paint9_radial_1110_21)" fill-opacity="0.25"/>
<ellipse rx="69.2351" ry="5.69656" transform="matrix(1 0 0 -1 753.099 248.998)" fill="url(#paint10_radial_1110_21)" fill-opacity="0.25"/>
<g filter="url(#filter3_i_1110_21)">
<circle cx="751.785" cy="145.583" r="91.5831" fill="#87E0FF"/>
</g>
<circle cx="751.583" cy="145.583" r="91.5831" fill="url(#paint11_radial_1110_21)"/>
<path d="M718.95 141.64V153H716.614V141.64H718.95ZM723.284 144.616V145.64C723.722 144.829 724.554 144.424 725.78 144.424C726.772 144.424 727.535 144.728 728.068 145.336C728.602 145.933 728.868 146.744 728.868 147.768V153H726.596V148.024C726.596 146.925 726.122 146.376 725.172 146.376C724.628 146.376 724.207 146.541 723.908 146.872C723.61 147.192 723.46 147.635 723.46 148.2V153H721.188V144.616H723.284ZM734.54 151.176C734.956 151.176 735.319 151.059 735.628 150.824C735.937 150.589 736.135 150.285 736.22 149.912L738.492 150.296C738.321 151.075 737.9 151.752 737.228 152.328C736.556 152.904 735.665 153.192 734.556 153.192C733.34 153.192 732.332 152.776 731.532 151.944C730.743 151.101 730.348 150.056 730.348 148.808C730.348 147.56 730.743 146.52 731.532 145.688C732.332 144.845 733.34 144.424 734.556 144.424C735.665 144.424 736.556 144.712 737.228 145.288C737.9 145.864 738.321 146.541 738.492 147.32L736.22 147.704C736.135 147.331 735.937 147.027 735.628 146.792C735.319 146.557 734.956 146.44 734.54 146.44C733.943 146.44 733.473 146.659 733.132 147.096C732.791 147.523 732.62 148.093 732.62 148.808C732.62 149.523 732.791 150.099 733.132 150.536C733.473 150.963 733.943 151.176 734.54 151.176ZM742.195 153H739.923V141H742.195V153ZM749.546 149.384V144.616H751.818V153H749.722V151.976C749.285 152.787 748.464 153.192 747.258 153.192C746.277 153.192 745.52 152.893 744.986 152.296C744.464 151.688 744.202 150.872 744.202 149.848V144.616H746.474V149.592C746.474 150.691 746.938 151.24 747.866 151.24C748.421 151.24 748.837 151.08 749.114 150.76C749.402 150.44 749.546 149.981 749.546 149.384ZM753.252 150.552L755.508 150.232C755.529 150.563 755.657 150.835 755.892 151.048C756.126 151.261 756.468 151.368 756.916 151.368C757.342 151.368 757.668 151.299 757.892 151.16C758.116 151.021 758.228 150.835 758.228 150.6C758.228 150.344 758.068 150.157 757.748 150.04C757.428 149.912 757.044 149.811 756.596 149.736C756.148 149.661 755.694 149.56 755.236 149.432C754.788 149.304 754.404 149.053 754.084 148.68C753.764 148.307 753.604 147.811 753.604 147.192C753.604 146.413 753.913 145.757 754.532 145.224C755.15 144.691 755.961 144.424 756.964 144.424C758.02 144.424 758.82 144.675 759.364 145.176C759.918 145.667 760.254 146.253 760.372 146.936L758.228 147.336C758.206 147.016 758.084 146.755 757.86 146.552C757.646 146.349 757.342 146.248 756.948 146.248C756.585 146.248 756.302 146.328 756.1 146.488C755.897 146.637 755.796 146.829 755.796 147.064C755.796 147.277 755.908 147.448 756.132 147.576C756.366 147.693 756.654 147.773 756.996 147.816C757.337 147.859 757.705 147.928 758.1 148.024C758.494 148.12 758.862 148.243 759.204 148.392C759.545 148.541 759.828 148.797 760.052 149.16C760.286 149.512 760.404 149.96 760.404 150.504C760.404 151.283 760.084 151.928 759.444 152.44C758.814 152.941 757.95 153.192 756.852 153.192C754.686 153.192 753.486 152.312 753.252 150.552ZM764.035 143.144C763.779 143.4 763.449 143.528 763.043 143.528C762.638 143.528 762.307 143.4 762.051 143.144C761.795 142.888 761.667 142.563 761.667 142.168C761.667 141.773 761.795 141.448 762.051 141.192C762.307 140.925 762.638 140.792 763.043 140.792C763.449 140.792 763.779 140.925 764.035 141.192C764.291 141.448 764.419 141.773 764.419 142.168C764.419 142.563 764.291 142.888 764.035 143.144ZM761.907 153V144.616H764.179V153H761.907ZM769.659 150.264L771.707 144.616H774.059L770.699 153H768.587L765.227 144.616H767.627L769.659 150.264ZM777.223 143.144C776.967 143.4 776.636 143.528 776.231 143.528C775.825 143.528 775.495 143.4 775.239 143.144C774.983 142.888 774.855 142.563 774.855 142.168C774.855 141.773 774.983 141.448 775.239 141.192C775.495 140.925 775.825 140.792 776.231 140.792C776.636 140.792 776.967 140.925 777.223 141.192C777.479 141.448 777.607 141.773 777.607 142.168C777.607 142.563 777.479 142.888 777.223 143.144ZM775.095 153V144.616H777.367V153H775.095ZM783.39 150.984V152.952C783.134 153.016 782.777 153.048 782.318 153.048C780.601 153.048 779.742 152.195 779.742 150.488V146.408H778.606V144.616H779.742V142.536H782.014V144.616H783.406V146.408H782.014V150.248C782.014 150.792 782.297 151.064 782.862 151.064L783.39 150.984ZM787.07 152.872L783.758 144.616H786.174L788.19 150.216L790.222 144.616H792.59L788.958 153.688C788.552 154.701 788.067 155.421 787.502 155.848C786.936 156.285 786.259 156.504 785.47 156.504L784.782 156.456V154.504C784.899 154.525 785.043 154.536 785.214 154.536C785.598 154.536 785.923 154.451 786.19 154.28C786.456 154.12 786.691 153.789 786.894 153.288L787.07 152.872Z" fill="#573939"/>
<ellipse cx="117.437" cy="252.503" rx="117.437" ry="9.20213" fill="url(#paint12_radial_1110_21)" fill-opacity="0.25"/>
<ellipse rx="69.2351" ry="5.69656" transform="matrix(1 0 0 -1 141.099 248.998)" fill="url(#paint13_radial_1110_21)" fill-opacity="0.25"/>
<ellipse rx="69.2351" ry="5.69656" transform="matrix(1 0 0 -1 141.099 248.998)" fill="url(#paint14_radial_1110_21)" fill-opacity="0.25"/>
<g filter="url(#filter4_i_1110_21)">
<circle cx="139.785" cy="145.583" r="91.5831" fill="#CCBDFE"/>
</g>
<circle cx="139.583" cy="145.583" r="91.5831" fill="url(#paint15_radial_1110_21)"/>
<path d="M75.4364 148.576C74.3591 147.488 73.8204 146.064 73.8204 144.304C73.8204 142.544 74.3591 141.12 75.4364 140.032C76.5138 138.944 77.8791 138.4 79.5324 138.4C80.8764 138.4 82.0391 138.757 83.0204 139.472C84.0018 140.176 84.6418 141.136 84.9404 142.352L82.5404 142.848C82.3698 142.144 82.0178 141.6 81.4844 141.216C80.9511 140.821 80.3004 140.624 79.5324 140.624C78.5084 140.624 77.7084 140.955 77.1324 141.616C76.5671 142.277 76.2844 143.173 76.2844 144.304C76.2844 145.435 76.5671 146.331 77.1324 146.992C77.7084 147.653 78.5084 147.984 79.5324 147.984C80.3004 147.984 80.9511 147.792 81.4844 147.408C82.0178 147.013 82.3698 146.464 82.5404 145.76L84.9404 146.256C84.6418 147.472 84.0018 148.437 83.0204 149.152C82.0391 149.856 80.8764 150.208 79.5324 150.208C77.8791 150.208 76.5138 149.664 75.4364 148.576ZM88.8042 150H86.5322V138H88.8042V150ZM93.0196 140.144C92.7636 140.4 92.4329 140.528 92.0276 140.528C91.6222 140.528 91.2916 140.4 91.0356 140.144C90.7796 139.888 90.6516 139.563 90.6516 139.168C90.6516 138.773 90.7796 138.448 91.0356 138.192C91.2916 137.925 91.6222 137.792 92.0276 137.792C92.4329 137.792 92.7636 137.925 93.0196 138.192C93.2756 138.448 93.4036 138.773 93.4036 139.168C93.4036 139.563 93.2756 139.888 93.0196 140.144ZM90.8916 150V141.616H93.1636V150H90.8916ZM97.3469 141.616V142.64C97.7843 141.829 98.6163 141.424 99.8429 141.424C100.835 141.424 101.598 141.728 102.131 142.336C102.664 142.933 102.931 143.744 102.931 144.768V150H100.659V145.024C100.659 143.925 100.184 143.376 99.2349 143.376C98.6909 143.376 98.2696 143.541 97.9709 143.872C97.6723 144.192 97.5229 144.635 97.5229 145.2V150H95.2509V141.616H97.3469ZM107.066 140.144C106.81 140.4 106.48 140.528 106.074 140.528C105.669 140.528 105.338 140.4 105.082 140.144C104.826 139.888 104.698 139.563 104.698 139.168C104.698 138.773 104.826 138.448 105.082 138.192C105.338 137.925 105.669 137.792 106.074 137.792C106.48 137.792 106.81 137.925 107.066 138.192C107.322 138.448 107.45 138.773 107.45 139.168C107.45 139.563 107.322 139.888 107.066 140.144ZM104.938 150V141.616H107.21V150H104.938ZM112.962 148.176C113.378 148.176 113.74 148.059 114.05 147.824C114.359 147.589 114.556 147.285 114.642 146.912L116.914 147.296C116.743 148.075 116.322 148.752 115.65 149.328C114.978 149.904 114.087 150.192 112.978 150.192C111.762 150.192 110.754 149.776 109.954 148.944C109.164 148.101 108.77 147.056 108.77 145.808C108.77 144.56 109.164 143.52 109.954 142.688C110.754 141.845 111.762 141.424 112.978 141.424C114.087 141.424 114.978 141.712 115.65 142.288C116.322 142.864 116.743 143.541 116.914 144.32L114.642 144.704C114.556 144.331 114.359 144.027 114.05 143.792C113.74 143.557 113.378 143.44 112.962 143.44C112.364 143.44 111.895 143.659 111.554 144.096C111.212 144.523 111.042 145.093 111.042 145.808C111.042 146.523 111.212 147.099 111.554 147.536C111.895 147.963 112.364 148.176 112.962 148.176ZM120.473 140.144C120.217 140.4 119.886 140.528 119.481 140.528C119.075 140.528 118.745 140.4 118.489 140.144C118.233 139.888 118.105 139.563 118.105 139.168C118.105 138.773 118.233 138.448 118.489 138.192C118.745 137.925 119.075 137.792 119.481 137.792C119.886 137.792 120.217 137.925 120.473 138.192C120.729 138.448 120.857 138.773 120.857 139.168C120.857 139.563 120.729 139.888 120.473 140.144ZM118.345 150V141.616H120.617V150H118.345ZM124.656 144.384L122.48 143.984C122.619 143.237 122.987 142.624 123.584 142.144C124.192 141.664 125.067 141.424 126.208 141.424C127.424 141.424 128.341 141.696 128.96 142.24C129.579 142.784 129.888 143.552 129.888 144.544V147.792C129.888 148.155 130.037 148.336 130.336 148.336L130.576 148.32V150.048C130.459 150.091 130.261 150.112 129.984 150.112C129.024 150.112 128.389 149.765 128.08 149.072C127.387 149.819 126.421 150.192 125.184 150.192C124.213 150.192 123.477 149.963 122.976 149.504C122.485 149.045 122.24 148.453 122.24 147.728C122.24 146.245 123.328 145.323 125.504 144.96L127.728 144.592V144.528C127.728 143.707 127.221 143.296 126.208 143.296C125.28 143.296 124.763 143.659 124.656 144.384ZM127.728 146.208L125.728 146.576C125.269 146.661 124.939 146.784 124.736 146.944C124.533 147.093 124.432 147.296 124.432 147.552C124.432 148.139 124.853 148.432 125.696 148.432C126.347 148.432 126.848 148.261 127.2 147.92C127.552 147.568 127.728 147.099 127.728 146.512V146.208ZM134.097 141.616V142.64C134.534 141.829 135.366 141.424 136.593 141.424C137.585 141.424 138.348 141.728 138.881 142.336C139.414 142.933 139.681 143.744 139.681 144.768V150H137.409V145.024C137.409 143.925 136.934 143.376 135.985 143.376C135.441 143.376 135.02 143.541 134.721 143.872C134.422 144.192 134.273 144.635 134.273 145.2V150H132.001V141.616H134.097ZM145.333 146.784L147.589 146.32C147.642 146.864 147.85 147.307 148.213 147.648C148.586 147.979 149.119 148.144 149.813 148.144C150.442 148.144 150.933 148.032 151.285 147.808C151.637 147.573 151.813 147.248 151.813 146.832C151.813 146.491 151.663 146.213 151.365 146C151.066 145.787 150.693 145.637 150.245 145.552C149.807 145.467 149.327 145.349 148.805 145.2C148.282 145.04 147.797 144.864 147.349 144.672C146.911 144.469 146.543 144.133 146.245 143.664C145.946 143.184 145.797 142.597 145.797 141.904C145.797 140.912 146.17 140.08 146.917 139.408C147.663 138.736 148.671 138.4 149.941 138.4C151.135 138.4 152.101 138.72 152.837 139.36C153.573 139.989 154.005 140.795 154.133 141.776L151.877 142.192C151.855 141.68 151.669 141.269 151.317 140.96C150.975 140.64 150.506 140.48 149.909 140.48C149.365 140.48 148.927 140.603 148.597 140.848C148.266 141.083 148.101 141.387 148.101 141.76C148.101 142.069 148.213 142.32 148.437 142.512C148.661 142.704 148.949 142.853 149.301 142.96C149.663 143.067 150.058 143.168 150.485 143.264C150.922 143.349 151.354 143.467 151.781 143.616C152.218 143.765 152.613 143.957 152.965 144.192C153.327 144.416 153.621 144.747 153.845 145.184C154.069 145.621 154.181 146.144 154.181 146.752C154.181 147.776 153.765 148.613 152.933 149.264C152.111 149.904 151.029 150.224 149.685 150.224C148.319 150.224 147.279 149.899 146.565 149.248C145.861 148.587 145.45 147.765 145.333 146.784ZM161.265 146.384V141.616H163.537V150H161.441V148.976C161.004 149.787 160.182 150.192 158.977 150.192C157.996 150.192 157.238 149.893 156.705 149.296C156.182 148.688 155.921 147.872 155.921 146.848V141.616H158.193V146.592C158.193 147.691 158.657 148.24 159.585 148.24C160.14 148.24 160.556 148.08 160.833 147.76C161.121 147.44 161.265 146.981 161.265 146.384ZM167.882 149.104V153.328H165.61V141.616H167.706V142.64C168.261 141.829 169.146 141.424 170.362 141.424C171.546 141.424 172.485 141.84 173.178 142.672C173.872 143.504 174.218 144.549 174.218 145.808C174.218 147.067 173.872 148.112 173.178 148.944C172.485 149.776 171.546 150.192 170.362 150.192C169.808 150.192 169.312 150.091 168.874 149.888C168.448 149.675 168.117 149.413 167.882 149.104ZM168.378 144.096C168.005 144.544 167.818 145.115 167.818 145.808C167.818 146.501 168.005 147.072 168.378 147.52C168.762 147.968 169.264 148.192 169.882 148.192C170.501 148.192 170.997 147.968 171.37 147.52C171.754 147.072 171.946 146.501 171.946 145.808C171.946 145.115 171.754 144.544 171.37 144.096C170.997 143.648 170.501 143.424 169.882 143.424C169.264 143.424 168.762 143.648 168.378 144.096ZM177.867 149.104V153.328H175.595V141.616H177.691V142.64C178.245 141.829 179.131 141.424 180.347 141.424C181.531 141.424 182.469 141.84 183.163 142.672C183.856 143.504 184.203 144.549 184.203 145.808C184.203 147.067 183.856 148.112 183.163 148.944C182.469 149.776 181.531 150.192 180.347 150.192C179.792 150.192 179.296 150.091 178.859 149.888C178.432 149.675 178.101 149.413 177.867 149.104ZM178.363 144.096C177.989 144.544 177.803 145.115 177.803 145.808C177.803 146.501 177.989 147.072 178.363 147.52C178.747 147.968 179.248 148.192 179.867 148.192C180.485 148.192 180.981 147.968 181.355 147.52C181.739 147.072 181.931 146.501 181.931 145.808C181.931 145.115 181.739 144.544 181.355 144.096C180.981 143.648 180.485 143.424 179.867 143.424C179.248 143.424 178.747 143.648 178.363 144.096ZM192.807 148.928C191.996 149.771 190.935 150.192 189.623 150.192C188.311 150.192 187.25 149.771 186.439 148.928C185.628 148.075 185.223 147.035 185.223 145.808C185.223 144.581 185.628 143.547 186.439 142.704C187.25 141.851 188.311 141.424 189.623 141.424C190.935 141.424 191.996 141.851 192.807 142.704C193.618 143.547 194.023 144.581 194.023 145.808C194.023 147.035 193.618 148.075 192.807 148.928ZM188.087 144.064C187.692 144.491 187.495 145.072 187.495 145.808C187.495 146.544 187.692 147.125 188.087 147.552C188.492 147.979 189.004 148.192 189.623 148.192C190.242 148.192 190.748 147.979 191.143 147.552C191.548 147.125 191.751 146.544 191.751 145.808C191.751 145.072 191.548 144.491 191.143 144.064C190.748 143.637 190.242 143.424 189.623 143.424C189.004 143.424 188.492 143.637 188.087 144.064ZM200.315 141.552V143.68C200.155 143.648 200.006 143.632 199.867 143.632C199.195 143.632 198.688 143.808 198.347 144.16C198.016 144.512 197.851 145.067 197.851 145.824V150H195.579V141.616H197.675V142.704C198.155 141.925 198.944 141.536 200.043 141.536L200.315 141.552ZM205.484 147.984V149.952C205.228 150.016 204.87 150.048 204.412 150.048C202.694 150.048 201.836 149.195 201.836 147.488V143.408H200.7V141.616H201.836V139.536H204.108V141.616H205.5V143.408H204.108V147.248C204.108 147.792 204.39 148.064 204.956 148.064L205.484 147.984Z" fill="#573939"/>
<defs>
<filter id="filter0_i_1110_21" x="198.525" y="3" width="146.795" height="146.795" filterUnits="userSpaceOnUse" color-interpolation-filters="sRGB">
<feFlood flood-opacity="0" result="BackgroundImageFix"/>
<feBlend mode="normal" in="SourceGraphic" in2="BackgroundImageFix" result="shape"/>
<feColorMatrix in="SourceAlpha" type="matrix" values="0 0 0 0 0 0 0 0 0 0 0 0 0 0 0 0 0 0 127 0" result="hardAlpha"/>
<feOffset dx="8" dy="8"/>
<feGaussianBlur stdDeviation="12.5"/>
<feComposite in2="hardAlpha" operator="arithmetic" k2="-1" k3="1"/>
<feColorMatrix type="matrix" values="0 0 0 0 0 0 0 0 0 0 0 0 0 0 0 0 0 0 0.09 0"/>
<feBlend mode="normal" in2="shape" result="effect1_innerShadow_1110_21"/>
</filter>
<filter id="filter1_i_1110_21" x="564.525" y="3" width="146.795" height="146.795" filterUnits="userSpaceOnUse" color-interpolation-filters="sRGB">
<feFlood flood-opacity="0" result="BackgroundImageFix"/>
<feBlend mode="normal" in="SourceGraphic" in2="BackgroundImageFix" result="shape"/>
<feColorMatrix in="SourceAlpha" type="matrix" values="0 0 0 0 0 0 0 0 0 0 0 0 0 0 0 0 0 0 127 0" result="hardAlpha"/>
<feOffset dx="8" dy="8"/>
<feGaussianBlur stdDeviation="12.5"/>
<feComposite in2="hardAlpha" operator="arithmetic" k2="-1" k3="1"/>
<feColorMatrix type="matrix" values="0 0 0 0 0 0 0 0 0 0 0 0 0 0 0 0 0 0 0.25 0"/>
<feBlend mode="normal" in2="shape" result="effect1_innerShadow_1110_21"/>
</filter>
<filter id="filter2_i_1110_21" x="308.265" y="0" width="286.407" height="286.407" filterUnits="userSpaceOnUse" color-interpolation-filters="sRGB">
<feFlood flood-opacity="0" result="BackgroundImageFix"/>
<feBlend mode="normal" in="SourceGraphic" in2="BackgroundImageFix" result="shape"/>
<feColorMatrix in="SourceAlpha" type="matrix" values="0 0 0 0 0 0 0 0 0 0 0 0 0 0 0 0 0 0 127 0" result="hardAlpha"/>
<feOffset dx="8" dy="8"/>
<feGaussianBlur stdDeviation="12.5"/>
<feComposite in2="hardAlpha" operator="arithmetic" k2="-1" k3="1"/>
<feColorMatrix type="matrix" values="0 0 0 0 0 0 0 0 0 0 0 0 0 0 0 0 0 0 0.25 0"/>
<feBlend mode="normal" in2="shape" result="effect1_innerShadow_1110_21"/>
</filter>
<filter id="filter3_i_1110_21" x="660.202" y="54" width="191.166" height="191.166" filterUnits="userSpaceOnUse" color-interpolation-filters="sRGB">
<feFlood flood-opacity="0" result="BackgroundImageFix"/>
<feBlend mode="normal" in="SourceGraphic" in2="BackgroundImageFix" result="shape"/>
<feColorMatrix in="SourceAlpha" type="matrix" values="0 0 0 0 0 0 0 0 0 0 0 0 0 0 0 0 0 0 127 0" result="hardAlpha"/>
<feOffset dx="8" dy="8"/>
<feGaussianBlur stdDeviation="12.5"/>
<feComposite in2="hardAlpha" operator="arithmetic" k2="-1" k3="1"/>
<feColorMatrix type="matrix" values="0 0 0 0 0 0 0 0 0 0 0 0 0 0 0 0 0 0 0.25 0"/>
<feBlend mode="normal" in2="shape" result="effect1_innerShadow_1110_21"/>
</filter>
<filter id="filter4_i_1110_21" x="48.2018" y="54" width="191.166" height="191.166" filterUnits="userSpaceOnUse" color-interpolation-filters="sRGB">
<feFlood flood-opacity="0" result="BackgroundImageFix"/>
<feBlend mode="normal" in="SourceGraphic" in2="BackgroundImageFix" result="shape"/>
<feColorMatrix in="SourceAlpha" type="matrix" values="0 0 0 0 0 0 0 0 0 0 0 0 0 0 0 0 0 0 127 0" result="hardAlpha"/>
<feOffset dx="8" dy="8"/>
<feGaussianBlur stdDeviation="12.5"/>
<feComposite in2="hardAlpha" operator="arithmetic" k2="-1" k3="1"/>
<feColorMatrix type="matrix" values="0 0 0 0 0 0 0 0 0 0 0 0 0 0 0 0 0 0 0.25 0"/>
<feBlend mode="normal" in2="shape" result="effect1_innerShadow_1110_21"/>
</filter>
<radialGradient id="paint0_radial_1110_21" cx="0" cy="0" r="1" gradientUnits="userSpaceOnUse" gradientTransform="translate(250.988 153.417) rotate(90) scale(6.97295 88.9881)">
<stop/>
<stop offset="1" stop-opacity="0"/>
</radialGradient>
<radialGradient id="paint1_radial_1110_21" cx="0" cy="0" r="1" gradientUnits="userSpaceOnUse" gradientTransform="translate(52.4632 4.31659) rotate(90) scale(4.31659 52.4632)">
<stop/>
<stop offset="1" stop-opacity="0"/>
</radialGradient>
<radialGradient id="paint2_radial_1110_21" cx="0" cy="0" r="1" gradientUnits="userSpaceOnUse" gradientTransform="translate(290.644 30.2277) rotate(68.8602) scale(53.4005)">
<stop stop-color="white" stop-opacity="0.88"/>
<stop offset="0.831904" stop-color="#F5FDFF" stop-opacity="0"/>
</radialGradient>
<radialGradient id="paint3_radial_1110_21" cx="0" cy="0" r="1" gradientUnits="userSpaceOnUse" gradientTransform="translate(616.988 153.417) rotate(90) scale(6.97295 88.9881)">
<stop/>
<stop offset="1" stop-opacity="0"/>
</radialGradient>
<radialGradient id="paint4_radial_1110_21" cx="0" cy="0" r="1" gradientUnits="userSpaceOnUse" gradientTransform="translate(52.4632 4.31659) rotate(90) scale(4.31659 52.4632)">
<stop/>
<stop offset="1" stop-opacity="0"/>
</radialGradient>
<radialGradient id="paint5_radial_1110_21" cx="0" cy="0" r="1" gradientUnits="userSpaceOnUse" gradientTransform="translate(656.644 30.2277) rotate(68.8602) scale(53.4005)">
<stop stop-color="white" stop-opacity="0.54"/>
<stop offset="0.831904" stop-color="#F5FDFF" stop-opacity="0"/>
</radialGradient>
<radialGradient id="paint6_radial_1110_21" cx="0" cy="0" r="1" gradientUnits="userSpaceOnUse" gradientTransform="translate(413.5 301.718) rotate(90) scale(13.9869 178.5)">
<stop/>
<stop offset="1" stop-opacity="0"/>
</radialGradient>
<radialGradient id="paint7_radial_1110_21" cx="0" cy="0" r="1" gradientUnits="userSpaceOnUse" gradientTransform="translate(105.235 8.65858) rotate(90) scale(8.65858 105.235)">
<stop/>
<stop offset="1" stop-opacity="0"/>
</radialGradient>
<radialGradient id="paint8_radial_1110_21" cx="0" cy="0" r="1" gradientUnits="userSpaceOnUse" gradientTransform="translate(491.828 54.6157) rotate(68.8602) scale(107.115)">
<stop stop-color="white" stop-opacity="0.88"/>
<stop offset="0.831904" stop-color="#F5FDFF" stop-opacity="0"/>
</radialGradient>
<radialGradient id="paint9_radial_1110_21" cx="0" cy="0" r="1" gradientUnits="userSpaceOnUse" gradientTransform="translate(729.437 252.503) rotate(90) scale(9.20213 117.437)">
<stop/>
<stop offset="1" stop-opacity="0"/>
</radialGradient>
<radialGradient id="paint10_radial_1110_21" cx="0" cy="0" r="1" gradientUnits="userSpaceOnUse" gradientTransform="translate(69.2351 5.69656) rotate(90) scale(5.69656 69.2351)">
<stop/>
<stop offset="1" stop-opacity="0"/>
</radialGradient>
<radialGradient id="paint11_radial_1110_21" cx="0" cy="0" r="1" gradientUnits="userSpaceOnUse" gradientTransform="translate(780.942 89.9321) rotate(68.8602) scale(70.472)">
<stop stop-color="white" stop-opacity="0.88"/>
<stop offset="0.831904" stop-color="#F5FDFF" stop-opacity="0"/>
</radialGradient>
<radialGradient id="paint12_radial_1110_21" cx="0" cy="0" r="1" gradientUnits="userSpaceOnUse" gradientTransform="translate(117.437 252.503) rotate(90) scale(9.20213 117.437)">
<stop/>
<stop offset="1" stop-opacity="0"/>
</radialGradient>
<radialGradient id="paint13_radial_1110_21" cx="0" cy="0" r="1" gradientUnits="userSpaceOnUse" gradientTransform="translate(69.2351 5.69656) rotate(90) scale(5.69656 69.2351)">
<stop/>
<stop offset="1" stop-opacity="0"/>
</radialGradient>
<radialGradient id="paint14_radial_1110_21" cx="0" cy="0" r="1" gradientUnits="userSpaceOnUse" gradientTransform="translate(69.2351 5.69656) rotate(90) scale(5.69656 69.2351)">
<stop/>
<stop offset="1" stop-opacity="0"/>
</radialGradient>
<radialGradient id="paint15_radial_1110_21" cx="0" cy="0" r="1" gradientUnits="userSpaceOnUse" gradientTransform="translate(168.942 89.9321) rotate(68.8602) scale(70.472)">
<stop stop-color="white" stop-opacity="0.88"/>
<stop offset="0.831904" stop-color="#F5FDFF" stop-opacity="0"/>
</radialGradient>
</defs>
</svg>
