<svg width="125" height="40" viewBox="0 0 125 40" fill="none" xmlns="http://www.w3.org/2000/svg">
<path d="M10.3561 25.0199C7.29977 22.1799 5.81018 18.7303 5.81018 14.6749C5.81018 10.6195 7.29977 7.16786 10.3561 4.26038C13.3381 1.42043 16.9605 0.00044632 21.2234 0.00044632C25.4836 0.00044632 29.1074 1.42043 32.1617 4.26038C35.145 7.16786 36.6367 10.6155 36.6367 14.6749C36.624 15.6767 36.5052 16.6747 36.282 17.6538H12.2734C12.6833 18.8191 13.3627 19.8819 14.2616 20.7639C15.1105 21.7101 16.183 22.4513 17.391 22.9266C18.5873 23.4638 19.8945 23.74 21.2172 23.7349C22.9746 23.7353 24.6969 23.2668 26.1887 22.3825L30.3967 26.4398C27.7696 28.368 24.5341 29.3928 21.2172 29.3473C16.9612 29.3473 13.3374 27.9273 10.3561 25.0199ZM30.3153 12.111C30.0347 11.1743 29.6033 10.2846 29.0365 9.47359C28.4234 8.7329 27.7336 8.05291 26.9773 7.44392C25.3305 6.25953 23.3229 5.61873 21.2589 5.61873C19.1949 5.61873 17.1873 6.25953 15.5405 7.44392C13.8864 8.59153 12.6857 10.2353 12.1315 12.111H30.3153Z" fill="#282828"/>
<path d="M43.5986 26.7776C42.7344 25.9786 42.0496 25.0211 41.5856 23.9628C41.1215 22.9046 40.888 21.7677 40.899 20.621H46.7947C46.8282 21.4357 47.1832 22.2083 47.7888 22.7848C48.3943 23.3613 49.206 23.6992 50.0618 23.7311C50.6568 23.7439 51.2448 23.6069 51.7663 23.3339C52.2523 23.0391 52.6646 22.6466 52.9742 22.184C53.2865 21.7036 53.4553 21.1513 53.4622 20.5864C53.4691 20.0215 53.3139 19.4655 53.0134 18.9784C52.7129 18.4913 52.2784 18.0915 51.7568 17.822C51.2352 17.5526 50.6463 17.4237 50.0535 17.4494V17.5189C47.6253 17.4757 45.3104 16.5336 43.5997 14.8926C41.8891 13.2515 40.9173 11.0407 40.8906 8.72895C40.9016 7.28742 41.285 5.8706 42.0069 4.60338C42.7288 3.33616 43.7671 2.25745 45.0303 1.46235C46.2935 0.667248 47.7427 0.180158 49.2503 0.0440295C50.7579 -0.0920992 52.2775 0.126903 53.6752 0.68174C55.8668 1.59488 57.6166 3.26054 58.5758 5.34682C59.0561 6.41316 59.2983 7.56284 59.2872 8.72299H53.3998C53.391 8.10787 53.1936 7.50861 52.8317 6.99891C52.4699 6.48921 51.9594 6.09129 51.3632 5.85412C50.7669 5.61694 50.1108 5.55085 49.4756 5.66396C48.8403 5.77706 48.2537 6.06443 47.7878 6.49074C47.4737 6.78033 47.2239 7.12709 47.0533 7.51039C46.8827 7.89369 46.7948 8.30572 46.7948 8.722C46.7948 9.13828 46.8827 9.5503 47.0533 9.9336C47.2239 10.3169 47.4737 10.6637 47.7878 10.9532C48.0764 11.2535 48.4278 11.4929 48.8195 11.656C49.2111 11.8192 49.6343 11.9025 50.0618 11.9006V11.831C51.5771 11.824 53.0708 12.1733 54.4102 12.848C55.7495 13.5227 56.8931 14.5019 57.7393 15.6985C58.5854 16.8952 59.108 18.2722 59.2606 19.7074C59.4131 21.1426 59.1909 22.5914 58.6137 23.9252C58.0365 25.2589 57.1222 26.4363 55.952 27.3527C54.7817 28.2692 53.3918 28.8963 51.9058 29.1783C50.4197 29.4603 48.8834 29.3886 47.4335 28.9694C45.9835 28.5502 44.6648 27.7966 43.5944 26.7756L43.5986 26.7776Z" fill="#282828"/>
<path d="M68.1038 25.0197C65.0495 22.1798 63.5682 18.7222 63.5682 14.6747C63.5682 10.6273 65.0599 7.16772 68.1142 4.26024C71.0975 1.42029 74.72 0.000305176 78.9815 0.000305176C83.2437 0.000305176 86.8654 1.42029 89.8488 4.32976L85.7305 8.25008C83.8049 6.49249 81.5997 5.61468 78.9711 5.61468C77.7277 5.59466 76.4934 5.81848 75.3448 6.27221C74.1963 6.72595 73.1581 7.39989 72.295 8.25207C70.3757 10.0772 69.4536 12.1744 69.4536 14.6767C69.5022 17.0651 70.5205 19.3428 72.295 21.032C74.0694 22.7211 76.4621 23.6905 78.9711 23.7368C81.5997 23.7368 83.8007 22.857 85.7201 21.0994L89.8384 25.0217C86.855 27.9292 83.2333 29.3492 78.9711 29.3492C74.7088 29.3492 71.0788 27.9272 68.1038 25.0197Z" fill="#282828"/>
<path d="M98.7195 25.0197C95.6632 22.1798 94.1736 18.7301 94.1736 14.6747C94.1736 10.6194 95.6632 7.16773 98.7195 4.26025C101.703 1.42029 105.325 0.000314785 109.587 0.000314785C113.05 -0.0216015 116.414 1.1015 119.104 3.17789V0.000314785H125V29.3472H119.104V26.1696C116.414 28.246 113.05 29.3691 109.587 29.3472C105.325 29.3472 101.703 27.9272 98.7195 25.0197ZM114.346 22.5174C115.803 21.7385 117.007 20.5924 117.825 19.2048C118.669 17.8304 119.11 16.2663 119.104 14.6747C119.104 12.1724 118.182 10.0752 116.336 8.2501C114.417 6.4925 112.216 5.6127 109.587 5.6127C108.344 5.59315 107.109 5.81719 105.961 6.2709C104.812 6.72461 103.774 7.39829 102.911 8.2501C100.991 10.0752 100.078 12.1684 100.078 14.6747C100.125 17.0634 101.143 19.3417 102.918 21.0311C104.693 22.7204 107.086 23.6895 109.595 23.7348C111.264 23.739 112.904 23.3187 114.346 22.5174Z" fill="#282828"/>
<path d="M5.71216 26.531C5.79997 26.823 5.94122 27.098 6.12941 27.3433C6.21195 27.4556 6.30406 27.5612 6.4048 27.6591C6.45449 27.7041 6.50672 27.7465 6.56127 27.7862C6.61759 27.8239 6.67392 27.8577 6.73234 27.8914C6.96101 28.0178 7.20764 28.1121 7.46461 28.1715C7.71062 28.2307 7.96414 28.2567 8.21775 28.2489C8.65438 28.2318 9.08631 28.1563 9.5008 28.0245C9.66561 27.9729 9.79705 27.9212 9.88884 27.8855C9.98064 27.8497 10.0328 27.8199 10.0328 27.8199L9.99942 27.7941L9.90553 27.7206C9.82208 27.6591 9.69691 27.5677 9.55504 27.4664C9.41318 27.3651 9.23167 27.248 9.03139 27.1308C8.83111 27.0136 8.63292 26.8647 8.40551 26.7336C8.29494 26.6701 8.17811 26.6105 8.06128 26.5549L7.88395 26.4734L7.71079 26.39C7.48675 26.286 7.24984 26.2093 7.00564 26.1616C6.775 26.1084 6.53363 26.1146 6.30632 26.1795C6.07901 26.2444 5.87394 26.3657 5.71216 26.531Z" fill="#206301"/>
<path d="M11.8646 30.2409C12.03 30.1436 12.1895 30.0375 12.3424 29.9231C12.3424 29.9231 12.1483 29.8258 11.8354 29.7066L11.5767 29.6153C11.487 29.5815 11.3952 29.5378 11.2951 29.5001C11.0816 29.4175 10.8636 29.3459 10.6421 29.2856L10.4668 29.2399L10.2957 29.1883C10.1789 29.1565 10.0621 29.1287 9.94108 29.1069C9.70788 29.0612 9.46953 29.0438 9.23174 29.0552C8.99598 29.0521 8.7633 29.1065 8.55587 29.2132C8.34844 29.32 8.17317 29.4755 8.04675 29.6649C8.10449 29.8026 8.17427 29.9355 8.25538 30.0621C8.33527 30.172 8.42917 30.2721 8.53494 30.36C8.72843 30.5263 8.95364 30.6558 9.19837 30.7413C9.25678 30.7612 9.31728 30.781 9.3757 30.7969C9.43771 30.8099 9.50038 30.8199 9.56346 30.8267C9.69227 30.8407 9.8221 30.844 9.9515 30.8367C10.1972 30.8322 10.4415 30.8009 10.6796 30.7433C10.9073 30.6881 11.1283 30.6102 11.3389 30.511C11.5192 30.4302 11.6947 30.34 11.8646 30.2409Z" fill="#206301"/>
<path d="M13.3207 32.634C13.4292 32.5784 13.5293 32.5208 13.6295 32.4612C13.7296 32.4016 13.8256 32.3321 13.9153 32.2626C14.0947 32.1295 14.2512 31.9965 14.3805 31.8793C14.527 31.7492 14.6662 31.612 14.7978 31.4682C14.6242 31.4307 14.4487 31.4015 14.272 31.3808C14.1072 31.3669 13.9257 31.3292 13.7213 31.3053C13.5033 31.2775 13.2839 31.2616 13.0641 31.2577C12.8328 31.2417 12.6006 31.2417 12.3694 31.2577C12.2525 31.2577 12.1357 31.2815 12.021 31.3014C11.9062 31.3212 11.7936 31.349 11.6872 31.3768C11.4552 31.4308 11.2398 31.536 11.0586 31.6841C10.8773 31.8321 10.7353 32.0187 10.644 32.2288C10.7226 32.3435 10.8127 32.4506 10.9132 32.5486C11.0033 32.6394 11.1083 32.7159 11.224 32.775C11.4386 32.8865 11.6752 32.9541 11.9187 32.9736C12.0367 32.9845 12.1555 32.9845 12.2734 32.9736C12.3961 32.9571 12.5173 32.9326 12.6364 32.9001C12.8738 32.8349 13.1032 32.7456 13.3207 32.634Z" fill="#206301"/>
<path d="M14.3763 33.19C14.1639 33.2975 13.978 33.4467 13.8308 33.6278C13.6837 33.809 13.5788 34.0179 13.5231 34.2406C13.6169 34.3302 13.7204 34.4101 13.8318 34.479C13.934 34.5427 14.0459 34.5909 14.1636 34.6219C14.3901 34.6758 14.6257 34.6852 14.8562 34.6497C14.9716 34.6329 15.0853 34.607 15.1963 34.5723C15.3121 34.5319 15.4245 34.4827 15.5321 34.4253C15.7541 34.3131 15.9638 34.18 16.158 34.0281C16.3444 33.8864 16.5181 33.7303 16.6775 33.5614C16.834 33.3986 16.9675 33.2377 17.0781 33.1007C17.2992 32.8226 17.4244 32.626 17.4244 32.626C17.2468 32.6241 17.0692 32.6314 16.8924 32.6479C16.8089 32.6479 16.7234 32.6598 16.6337 32.6638C16.544 32.6677 16.4438 32.6757 16.3416 32.6856C16.1237 32.7064 15.9071 32.7382 15.6928 32.7809C15.465 32.8114 15.2403 32.8599 15.021 32.9259C14.9089 32.9597 14.7988 32.9995 14.6914 33.0451C14.6392 33.0669 14.585 33.0907 14.5328 33.1166C14.4807 33.1424 14.4243 33.1642 14.3763 33.19Z" fill="#206301"/>
<path d="M17.4995 35.5911C17.7282 35.5988 17.9562 35.5616 18.1692 35.4818C18.6243 35.2986 19.0269 35.0147 19.3438 34.6537C19.5053 34.4838 19.6558 34.3048 19.7944 34.1175C19.9279 33.9427 20.0427 33.764 20.1365 33.615C20.3201 33.3112 20.4224 33.1026 20.4224 33.1026C20.4224 33.1026 20.2137 33.1364 19.8966 33.2119C19.4983 33.2919 19.1076 33.4028 18.7283 33.5435C18.5077 33.6183 18.2936 33.7092 18.0878 33.8156C17.8811 33.9228 17.6855 34.0485 17.5037 34.191C17.3149 34.3339 17.1582 34.5114 17.0428 34.713C16.9274 34.9146 16.8557 35.1362 16.8319 35.3647C17.0301 35.494 17.2601 35.572 17.4995 35.5911Z" fill="#206301"/>
<path d="M20.5203 36.314C20.7414 36.2845 20.9541 36.2136 21.1462 36.1055C21.3531 35.9913 21.5444 35.8532 21.7157 35.6944C21.8967 35.525 22.0634 35.3424 22.2144 35.1482C22.4815 34.8038 22.7174 34.4384 22.9195 34.0559C23.0822 33.7481 23.1678 33.5336 23.1678 33.5336C23.1678 33.5336 22.9592 33.5912 22.6441 33.6905C22.4877 33.7422 22.302 33.8077 22.1059 33.8891C22.0057 33.9288 21.8972 33.9725 21.8013 34.0182L21.4967 34.1612C21.2865 34.2665 21.085 34.3866 20.8938 34.5207C20.7968 34.5883 20.7035 34.6606 20.6142 34.7371C20.5252 34.8083 20.4416 34.8852 20.3639 34.9675C20.0286 35.2985 19.8422 35.741 19.8444 36.2008C20.0559 36.2928 20.2886 36.3318 20.5203 36.314Z" fill="#206301"/>
<path d="M24.3465 36.312C24.5386 36.1798 24.7143 36.0272 24.8702 35.8572C24.9508 35.7698 25.028 35.6785 25.1018 35.5832C25.1727 35.4858 25.2415 35.3846 25.3104 35.2872C25.5354 34.9284 25.7274 34.5516 25.8841 34.1612C25.9446 34.0063 25.9926 33.8772 26.0218 33.7819L26.0677 33.6349L25.9425 33.6905C25.8591 33.7243 25.7339 33.7739 25.6025 33.8395C25.471 33.905 25.2999 33.9884 25.1247 34.0857C24.9495 34.183 24.7554 34.2843 24.5656 34.4075C24.3694 34.5268 24.1825 34.6596 24.0065 34.8046C23.825 34.9465 23.6606 35.107 23.5162 35.2833C23.2137 35.6308 23.0642 36.0764 23.0989 36.5265C23.3099 36.587 23.533 36.5992 23.7498 36.5619C23.9666 36.5246 24.1711 36.439 24.3465 36.312Z" fill="#206301"/>
<path d="M27.5552 36.1313C27.6485 36.0722 27.7364 36.0057 27.8181 35.9327C27.9876 35.7826 28.1388 35.6147 28.2687 35.4322C28.3995 35.2365 28.5139 35.0313 28.6108 34.8185C28.7818 34.4461 28.9153 34.0591 29.0093 33.6627C29.0823 33.341 29.1095 33.1265 29.1095 33.1265L29.0031 33.2019C28.9342 33.2496 28.8362 33.3231 28.7152 33.4005C28.5942 33.478 28.4565 33.5852 28.2979 33.7024C28.2249 33.76 28.1456 33.8256 28.0705 33.8911C27.9954 33.9566 27.9078 34.0182 27.8264 34.0897C27.4865 34.3747 27.1876 34.7012 26.9377 35.0608C26.6842 35.426 26.5782 35.8663 26.6393 36.3001C26.8483 36.337 27.0637 36.3226 27.2652 36.2584C27.3683 36.2308 27.4661 36.1879 27.5552 36.1313Z" fill="#206301"/>
<path d="M30.9705 34.6974C31.0393 34.6119 31.1013 34.5216 31.1561 34.4273C31.2125 34.328 31.2625 34.2287 31.3105 34.1175C31.4025 33.9058 31.4785 33.6881 31.5379 33.4661C31.5954 33.2577 31.6393 33.0461 31.6694 32.8326C31.6986 32.634 31.7173 32.4354 31.7278 32.2805C31.7486 31.9607 31.7445 31.7542 31.7445 31.7542C31.7445 31.7542 31.6068 31.8853 31.4107 32.1117C31.1533 32.3807 30.9137 32.6646 30.693 32.9617C30.4145 33.3 30.1883 33.6745 30.0212 34.0738C29.8398 34.4577 29.8066 34.8903 29.9273 35.2952C30.3529 35.2972 30.6993 35.0311 30.9705 34.6974Z" fill="#206301"/>
<path d="M33.8807 32.7929C34.0777 32.3827 34.2032 31.9446 34.2521 31.496C34.3019 31.1067 34.3152 30.7139 34.2917 30.3223C34.2771 30.0125 34.2479 29.8139 34.2479 29.8139C34.2479 29.8139 34.1269 29.9708 33.9579 30.2309C33.7402 30.5459 33.541 30.8721 33.3612 31.208C33.2632 31.4066 33.163 31.6052 33.0775 31.8038C32.9888 32.0034 32.9189 32.2101 32.8689 32.4215C32.8211 32.6233 32.8028 32.8305 32.8146 33.0371C32.8243 33.2347 32.8791 33.4278 32.9753 33.6031C33.1747 33.5313 33.3573 33.4228 33.5127 33.2838C33.668 33.1447 33.7931 32.9779 33.8807 32.7929Z" fill="#206301"/>
<path d="M36.0859 29.1843C35.6687 29.9172 35.3245 30.8387 35.7125 31.504C36.0971 31.3549 36.4065 31.0703 36.5762 30.7096C36.7744 30.3154 36.902 29.8926 36.9538 29.4584C37.0315 28.9195 37.0483 28.3742 37.0039 27.8319C37.0039 27.8319 36.8766 27.9808 36.6993 28.2291C36.4756 28.5359 36.2708 28.8549 36.0859 29.1843Z" fill="#206301"/>
<path d="M0 16.6766C0.0829129 19.4894 0.767225 22.2566 2.01115 24.8092C2.01122 24.8361 2.01764 24.8625 2.02993 24.8867C2.11755 25.0853 2.21143 25.27 2.3074 25.4586C2.06407 25.8156 1.92045 26.2257 1.89015 26.6502C1.85574 27.0222 1.85574 27.3963 1.89015 27.7683C1.90058 27.8656 1.91101 27.9669 1.92353 28.0642C1.93604 28.1615 1.95691 28.2628 1.97568 28.3562C2.01532 28.5548 2.06122 28.7534 2.1092 28.9401C2.20934 29.3273 2.31783 29.7086 2.44509 30.0602C2.57235 30.4117 2.71839 30.7116 2.84356 30.9777C2.96874 31.2438 3.07305 31.4583 3.15233 31.6112C3.18988 31.6867 3.22118 31.7463 3.24413 31.786L3.27959 31.8436C3.27959 31.8436 3.29211 31.7661 3.31923 31.6231C3.34635 31.4801 3.38182 31.2736 3.41937 31.0273C3.49656 30.5249 3.5821 29.8477 3.61548 29.1347C3.61548 28.7832 3.65095 28.3979 3.64051 28.0285C3.64051 27.8776 3.628 27.7286 3.61757 27.5797C3.98892 28.092 4.38739 28.5866 4.80256 29.0632C4.51202 29.4951 4.37794 30.0057 4.42077 30.5169C4.4435 30.8738 4.50289 31.2277 4.5981 31.5735C4.64609 31.7562 4.7045 31.9409 4.76709 32.1236C4.7963 32.2169 4.82968 32.3063 4.86306 32.3977C4.89644 32.489 4.94025 32.5724 4.9778 32.6598C5.13845 33.0034 5.31369 33.337 5.48685 33.6528C5.57656 33.8037 5.66001 33.9547 5.74763 34.0857C5.83526 34.2168 5.92496 34.338 6.00633 34.4492C6.3297 34.892 6.56961 35.1701 6.56961 35.1701C6.56961 35.1701 6.58213 34.8503 6.56961 34.3598C6.56961 34.1135 6.5571 33.8256 6.54041 33.5158C6.52372 33.2059 6.49034 32.8783 6.46322 32.5228C6.4361 32.1673 6.38394 31.8138 6.31926 31.4682C6.2838 31.2934 6.24625 31.1227 6.20035 30.9578C6.17949 30.8744 6.15236 30.795 6.12942 30.7096C6.10647 30.6242 6.08143 30.5427 6.0564 30.4613L6.03136 30.3918C6.61552 30.9876 7.21635 31.5377 7.81511 32.068C7.48757 32.5287 7.42915 33.1066 7.55433 33.7402C7.58526 33.9044 7.63062 34.0658 7.68994 34.2228C7.74835 34.3816 7.81511 34.5425 7.89856 34.7014C8.05415 35.0266 8.23331 35.3412 8.43473 35.6428C8.64335 35.9287 8.86241 36.2008 9.07938 36.4371C9.26847 36.662 9.4734 36.8743 9.69274 37.0727C10.0724 37.4123 10.3416 37.6168 10.3416 37.6168C10.3416 37.6168 10.3061 37.313 10.2247 36.8542C10.183 36.6238 10.1309 36.3557 10.0662 36.0598C10.0328 35.9168 9.99525 35.7679 9.95978 35.611C9.92432 35.4541 9.88259 35.2932 9.83878 35.1324C9.75462 34.8078 9.65295 34.4877 9.53418 34.1731C9.47299 34.0182 9.40832 33.8673 9.34016 33.7203C9.2734 33.5694 9.20247 33.4204 9.13154 33.2794C9.08147 33.1881 9.02931 33.1027 8.97298 33.0193C9.6626 33.5594 10.395 34.0481 11.1635 34.4809C10.9534 35.0003 10.9631 35.577 11.1907 36.0896C11.2178 36.1611 11.2491 36.2346 11.2825 36.3081C11.3158 36.3815 11.3555 36.4431 11.3951 36.5066C11.4752 36.6434 11.563 36.776 11.658 36.9038C11.8547 37.1732 12.0716 37.4287 12.3068 37.6685C12.5371 37.8851 12.7788 38.0906 13.0308 38.2841C13.2437 38.4523 13.4666 38.6088 13.6983 38.7528C14.0989 38.9931 14.3785 39.1301 14.3785 39.1301C14.3785 39.1301 14.3075 38.8501 14.1698 38.4331C14.0989 38.2245 14.0155 37.9822 13.9132 37.7241C13.811 37.4659 13.7046 37.1739 13.5711 36.8919C13.444 36.6056 13.2998 36.3265 13.1392 36.0558C13.06 35.9188 12.9744 35.7957 12.8868 35.6586C12.8034 35.531 12.7129 35.4077 12.6156 35.2892C12.5676 35.2336 12.5196 35.178 12.4695 35.1264C13.1476 35.4382 13.8442 35.712 14.5558 35.9466L14.8541 36.0419C14.7292 36.5543 14.819 37.0929 15.1045 37.5433C15.2542 37.7965 15.4395 38.029 15.6553 38.2345C15.8751 38.4496 16.1115 38.6487 16.3625 38.8303C16.8133 39.1335 17.2932 39.3955 17.7958 39.6127C18.0173 39.705 18.2436 39.7865 18.4738 39.857C18.4738 39.857 18.3778 39.6028 18.2026 39.2294C18.117 39.0428 18.0086 38.8322 17.8855 38.5959C17.7624 38.3596 17.6226 38.1074 17.4682 37.8611C17.1677 37.3682 16.7954 36.9182 16.3625 36.5245L16.2999 36.4749C17.0927 36.6973 17.8959 36.8899 18.7033 37.0508C18.6955 37.4817 18.8427 37.9021 19.1205 38.2424C19.2041 38.3509 19.2954 38.4537 19.3938 38.5502C19.4948 38.6453 19.6014 38.7348 19.713 38.8183C19.9423 38.9892 20.1858 39.142 20.4411 39.2751C20.5663 39.3406 20.6956 39.4042 20.8187 39.4618C20.9418 39.5194 21.0628 39.5651 21.1817 39.6107C21.4175 39.7021 21.6407 39.7756 21.8327 39.8352C22.0441 39.904 22.2601 39.9591 22.4794 40C22.4794 40 22.3709 39.7696 22.1811 39.428C21.9498 39.001 21.6848 38.5914 21.3883 38.2027C21.2223 37.9854 21.0404 37.7797 20.8438 37.587C20.7624 37.5056 20.679 37.4301 20.5913 37.3567C21.2777 37.444 21.9683 37.5036 22.6567 37.5294C22.7266 37.8467 22.8835 38.1406 23.1115 38.3814C23.2893 38.5714 23.4919 38.7389 23.7145 38.8799C23.9464 39.0192 24.1899 39.14 24.4426 39.2414C24.6857 39.3438 24.9368 39.4281 25.1936 39.4936C25.4356 39.5532 25.6672 39.5988 25.8654 39.6326C26.0636 39.6663 26.2305 39.6902 26.3473 39.7041C26.4641 39.718 26.533 39.714 26.533 39.714C26.533 39.714 26.4996 39.6663 26.4412 39.575C26.3828 39.4836 26.2952 39.3565 26.1867 39.2016C25.918 38.8222 25.6217 38.4612 25.3 38.1213C25.2103 38.0279 25.1164 37.9346 25.0205 37.8472C24.9245 37.7598 24.8264 37.6645 24.7221 37.5811C24.695 37.5572 24.6679 37.5374 24.6387 37.5155C25.3072 37.4788 25.9731 37.4066 26.6331 37.2991C26.727 37.5963 26.9115 37.8603 27.163 38.0577C27.5759 38.3664 28.0638 38.5713 28.5817 38.6535C28.7131 38.6813 28.8466 38.7071 28.9781 38.725C29.1095 38.7429 29.2368 38.7448 29.364 38.7508C29.6144 38.7508 29.8522 38.7508 30.0546 38.7508C30.2189 38.748 30.3828 38.7334 30.5449 38.7071L30.7305 38.6793C30.7305 38.6793 30.5741 38.5105 30.3133 38.2821C29.9933 37.9785 29.6532 37.6945 29.2952 37.4321C29.0964 37.2863 28.8872 37.1535 28.6693 37.0349C28.588 36.9873 28.5045 36.9456 28.4231 36.9058C29.1552 36.7152 29.8743 36.4817 30.5761 36.2068C30.6972 36.5256 30.9432 36.7875 31.2625 36.9376C31.7233 37.1235 32.2238 37.2025 32.7229 37.168C33.2055 37.1293 33.6824 37.0421 34.1457 36.9078C34.5213 36.7847 34.7716 36.6814 34.7716 36.6814C34.7716 36.6814 34.5964 36.5563 34.3168 36.3934C34.1749 36.312 34.008 36.2207 33.8244 36.1293C33.6409 36.038 33.4301 35.9307 33.2153 35.8433C32.9987 35.7522 32.7756 35.6759 32.5477 35.6149C32.4329 35.5871 32.3182 35.5633 32.2034 35.5454L32.0783 35.5276C32.8495 35.1402 33.5906 34.7008 34.2959 34.2128C34.3591 34.3638 34.4567 34.4994 34.5818 34.61C34.7366 34.7374 34.9235 34.8243 35.1242 34.8623C35.347 34.9067 35.5756 34.9188 35.8022 34.898C36.0503 34.8828 36.2955 34.8388 36.5324 34.7669C36.9767 34.6357 37.4076 34.4662 37.8196 34.2605C38.1513 34.0818 38.3662 33.9447 38.3662 33.9447C38.3662 33.9447 38.1868 33.8574 37.9031 33.7461C37.544 33.6147 37.1751 33.5092 36.7994 33.4304C36.3623 33.3322 35.9086 33.32 35.4663 33.3946L35.3745 33.4105C36.1256 32.8147 36.8725 32.1713 37.659 31.4583C38.0491 32.2527 39.0067 32.1097 39.8934 31.7463C40.2929 31.5671 40.676 31.3565 41.0387 31.1167C41.3391 30.9181 41.5311 30.7731 41.5311 30.7731C41.0374 30.6019 40.5215 30.4956 39.9977 30.4574C39.5698 30.4265 39.1397 30.475 38.7313 30.6003C38.6473 30.6289 38.5651 30.662 38.4851 30.6996C39.0317 30.1396 39.5207 29.5311 39.9455 28.8825C35.3266 33.4184 29.896 36.735 23.9586 36.8681C21.8014 36.9138 19.6838 36.5166 17.585 36.0499C15.2171 35.5216 12.8722 34.7769 10.7442 33.4383C7.45826 31.4098 4.78987 28.595 3.00629 25.2759C3.00629 25.2759 0.774001 20.1124 1.12866 14.774" fill="#206301"/>
</svg>
