<svg width="30" height="29" viewBox="0 0 30 29" fill="none" xmlns="http://www.w3.org/2000/svg">
<g clip-path="url(#clip0_976_4755)">
<path d="M15 0C23.283 0 30 6.4931 30 14.5C30 22.5069 23.283 29 15 29C6.717 29 0 22.5069 0 14.5C0 6.4931 6.717 0 15 0Z" fill="#1DA1F2"/>
<path d="M11.5201 21.8658C18.5941 21.8658 22.4671 16.1992 22.4671 11.2837C22.4671 11.1242 22.4671 10.9618 22.4551 10.8023C23.2081 10.2745 23.8591 9.62489 24.3751 8.87669C23.6731 9.17829 22.9291 9.37549 22.1671 9.46249C22.9711 8.99849 23.5711 8.26769 23.8591 7.40639C23.1031 7.83849 22.2781 8.14589 21.4171 8.30829C19.9591 6.81189 17.5231 6.73939 15.9751 8.14589C14.9761 9.05359 14.5531 10.4079 14.8621 11.6984C11.7691 11.5476 8.8861 10.1353 6.9331 7.81239C5.9131 9.51179 6.4321 11.6839 8.1241 12.7772C7.5121 12.7598 6.9121 12.6003 6.3781 12.3132C6.3781 12.3277 6.3781 12.3451 6.3781 12.3596C6.3781 14.1286 7.6681 15.654 9.4651 16.0049C8.8981 16.1528 8.3041 16.176 7.7281 16.0687C8.2321 17.5825 9.6751 18.6207 11.3221 18.6526C9.9601 19.6879 8.2771 20.2505 6.5461 20.2476C6.2401 20.2476 5.9341 20.2302 5.6311 20.1925C7.3831 21.2858 9.4321 21.8658 11.5201 21.8629" fill="white"/>
</g>
<defs>
<clipPath id="clip0_976_4755">
<rect width="30" height="29" fill="white"/>
</clipPath>
</defs>
</svg>
